<svg width="37" height="37" viewBox="0 0 37 37" fill="none" xmlns="http://www.w3.org/2000/svg">
<path d="M18.5 0C28.7173 0 37 8.28273 37 18.5C37 28.7173 28.7173 37 18.5 37C8.28273 37 0 28.7173 0 18.5C0 8.28273 8.28273 0 18.5 0Z" fill="#8DC046"/>
<path d="M18.5 0C28.7173 0 37 8.28273 37 18.5C37 28.7173 28.7173 37 18.5 37C8.28273 37 0 28.7173 0 18.5C0 8.28273 8.28273 0 18.5 0Z" stroke="#E5E7EB"/>
<path d="M28.9062 27.75H8.09375V9.25H28.9062V27.75Z" stroke="#E5E7EB"/>
<g clip-path="url(#clip0_4_1237)">
<path d="M18.5001 18.5C17.3319 18.5 16.2115 18.0127 15.3854 17.1454C14.5594 16.278 14.0953 15.1016 14.0953 13.875C14.0953 12.6484 14.5594 11.472 15.3854 10.6046C16.2115 9.73728 17.3319 9.25 18.5001 9.25C19.6683 9.25 20.7887 9.73728 21.6147 10.6046C22.4408 11.472 22.9048 12.6484 22.9048 13.875C22.9048 15.1016 22.4408 16.278 21.6147 17.1454C20.7887 18.0127 19.6683 18.5 18.5001 18.5ZM17.9873 22.2289L17.3473 21.1088C17.127 20.7222 17.392 20.2344 17.8187 20.2344H18.5001H19.178C19.6047 20.2344 19.8697 20.7258 19.6494 21.1088L19.0094 22.2289L20.1587 26.7058L21.3976 21.3979C21.4664 21.1052 21.7348 20.9137 22.0136 20.9896C24.4259 21.6255 26.2084 23.9163 26.2084 26.6407C26.2084 27.255 25.7335 27.75 25.152 27.75H20.6164C20.5442 27.75 20.4788 27.7355 20.4168 27.7103L20.4272 27.75H16.573L16.5833 27.7103C16.5214 27.7355 16.4526 27.75 16.3837 27.75H11.8482C11.2666 27.75 10.7917 27.2514 10.7917 26.6407C10.7917 23.9127 12.5777 21.6219 14.9866 20.9896C15.2653 20.9173 15.5337 21.1088 15.6026 21.3979L16.8414 26.7058L17.9908 22.2289H17.9873Z" fill="white"/>
</g>
<defs>
<clipPath id="clip0_4_1237">
<path d="M8.09375 9.25H28.9062V27.75H8.09375V9.25Z" fill="white"/>
</clipPath>
</defs>
</svg>
