<svg width="23" height="22" viewBox="0 0 23 22" fill="none" xmlns="http://www.w3.org/2000/svg">
<path d="M0.679712 19.3195C0.637114 18.9615 0.682533 18.5991 0.810844 18.2637L0.87153 18.1211L8.12628 2.52751C9.02491 0.594533 11.8696 0.918829 12.3105 3.00439L13.7148 9.64663C13.7534 9.82938 13.8342 10.0011 13.9495 10.148C14.0649 10.2948 14.2126 10.4131 14.381 10.494L14.3802 10.4951L20.667 13.5C22.5808 14.4142 22.2437 17.2351 20.168 17.6739L3.34317 21.2289C2.93989 21.3141 2.52081 21.2858 2.13294 21.1464C1.7451 21.0069 1.40369 20.762 1.14705 20.4395C0.890425 20.1169 0.72844 19.7289 0.679712 19.3195Z" fill="#FB8840" stroke="#3F3F3F"/>
</svg>
