<svg width="104" height="32" viewBox="0 0 104 32" fill="none" xmlns="http://www.w3.org/2000/svg">
<g clip-path="url(#clip0_1_250)">
<path d="M98.1501 14.6468C99.9748 14.1447 101.791 13.6195 103.597 13.0713C103.708 13.0368 103.834 12.9516 103.946 13.0276C104.047 13.0967 103.978 13.2095 103.964 13.304C103.865 13.9904 103.667 14.6537 103.255 15.2756C102.934 15.7639 102.454 16.1048 101.784 16.3075C97.7316 17.5213 93.6187 18.597 89.463 19.5736C86.2973 20.3176 83.1091 20.9994 79.9007 21.6166C75.7742 22.409 71.6208 23.0977 67.4314 23.6551C64.2949 24.072 61.1472 24.4244 57.9838 24.6777C56.1006 24.8298 54.2151 24.9611 52.3251 25.0394C50.7141 25.1085 49.1054 25.1384 47.4967 25.1914C45.6945 25.2513 43.8945 25.2052 42.099 25.1591C39.5993 25.097 37.1086 24.9426 34.6269 24.7031C30.3857 24.2908 26.2233 23.6182 22.1689 22.5725C18.7939 21.7019 15.5585 20.5871 12.5075 19.1682C12.4535 19.1429 12.404 19.1152 12.3523 19.0899C12.359 19.0761 12.3658 19.06 12.3725 19.0438C12.8405 19.1774 13.304 19.3179 13.772 19.4492C16.535 20.2231 19.3722 20.7805 22.2454 21.2435C24.9611 21.6811 27.7015 22.0105 30.4577 22.2477C32.3185 22.409 34.1837 22.5288 36.0534 22.6117C38.1751 22.7084 40.2968 22.7476 42.4208 22.7591C44.421 22.7706 46.419 22.7522 48.4124 22.6854C50.8896 22.6025 53.3601 22.462 55.8283 22.2754C60.7895 21.9023 65.7124 21.331 70.6038 20.5917C75.4142 19.8615 80.1729 18.9724 84.8866 17.9382C87.6878 17.3256 90.4687 16.6668 93.2317 15.9597C94.0484 15.7501 94.8629 15.5382 95.6774 15.3217L98.1501 14.6468Z" fill="#1476BC"/>
<path d="M66.5719 7.12188C67.6046 7.12188 68.6373 7.11957 69.6701 7.12188C70.0301 7.12188 70.3383 7.34991 70.4463 7.68158C70.5588 8.02247 70.4486 8.3864 70.1696 8.61673C70.0053 8.75263 69.8186 8.78027 69.6138 8.78027C67.6834 8.77796 65.7506 8.77796 63.8202 8.77796C63.5569 8.77796 63.3004 8.8056 63.0732 8.96223C62.7694 9.16953 62.6277 9.46205 62.6727 9.83058C62.7154 10.1853 62.9359 10.4064 63.2487 10.5377C63.4107 10.6068 63.5862 10.6137 63.7594 10.6137C65.1949 10.6114 66.6281 10.6068 68.0636 10.616C69.2763 10.6229 70.3113 11.4659 70.5768 12.6452C70.912 14.1378 69.8163 15.6718 68.3313 15.8054C67.7801 15.8561 67.2289 15.8376 66.6776 15.8399C65.1409 15.8445 63.6042 15.8445 62.0674 15.8399C61.4735 15.8376 61.136 15.5083 61.145 14.9509C61.1517 14.4764 61.469 14.147 61.9392 14.1447C63.2959 14.1401 64.6504 14.1424 66.0071 14.1424C66.6461 14.1424 67.2851 14.1401 67.9219 14.1424C68.0906 14.1424 68.2526 14.1194 68.4101 14.0641C68.7813 13.9328 69.0558 13.5573 69.0491 13.1911C69.0423 12.841 68.7791 12.5024 68.4078 12.3757C68.2481 12.3205 68.0861 12.3089 67.9173 12.3089C66.4976 12.3113 65.0801 12.3136 63.6604 12.3089C62.3667 12.3043 61.3452 11.4176 61.127 10.1185C60.8705 8.59139 62.0359 7.1403 63.5479 7.12418C64.5537 7.11497 65.5616 7.12418 66.5719 7.12188C66.5719 7.12418 66.5719 7.12418 66.5719 7.12188Z" fill="#8DC046"/>
<path d="M33.2387 15.8054C32.3477 15.8054 31.4567 15.7985 30.568 15.8077C29.2585 15.8215 28.1043 14.663 28.0413 13.2879C27.9873 12.0717 27.985 10.8487 28.0413 9.63481C28.1043 8.29658 29.2203 7.11959 30.577 7.12189C32.359 7.1265 34.1387 7.11959 35.9207 7.12419C37.1559 7.1288 38.2764 8.15608 38.4429 9.416C38.4766 9.67166 38.4946 9.92964 38.4901 10.1876C38.4654 11.284 38.5599 12.3827 38.4406 13.4767C38.2966 14.7942 37.1784 15.8008 35.8869 15.8054C35.0049 15.8077 34.1207 15.8054 33.2387 15.8054ZM33.2612 14.1032C34.0959 14.1032 34.9329 14.1032 35.7677 14.1032C36.4831 14.1032 36.8814 13.6979 36.8836 12.9654C36.8859 11.9566 36.8859 10.9477 36.8836 9.93885C36.8814 9.20179 36.4764 8.78258 35.7542 8.78258C34.0757 8.78028 32.3972 8.78028 30.7165 8.78258C30.0505 8.78258 29.6028 9.23634 29.5983 9.91812C29.5915 10.9339 29.5915 11.9519 29.5983 12.9677C29.6028 13.6771 30.0213 14.0986 30.7075 14.1009C31.558 14.1032 32.4085 14.1032 33.2612 14.1032Z" fill="#8DC046"/>
<path d="M45.348 7.12185C46.365 7.12185 47.382 7.11955 48.3989 7.12416C48.8129 7.12646 49.1279 7.39134 49.2112 7.79442C49.2899 8.16756 49.0852 8.55452 48.7252 8.72266C48.5902 8.78485 48.4484 8.78255 48.3067 8.78255C46.4145 8.78255 44.5245 8.78255 42.6323 8.78255C41.8606 8.78255 41.4308 9.21557 41.4263 10.0079C41.4218 10.9753 41.4218 11.945 41.4263 12.9124C41.4308 13.7001 41.8313 14.1078 42.5895 14.1101C44.4345 14.1101 46.2772 14.1101 48.1222 14.1101C48.2729 14.1101 48.4214 14.1147 48.5677 14.1516C48.9592 14.2506 49.1909 14.5708 49.1842 15.0107C49.1797 15.4046 48.9254 15.7317 48.5564 15.8123C48.4507 15.8353 48.3382 15.8445 48.2279 15.8445C46.3605 15.8468 44.493 15.8491 42.6233 15.8445C41.0731 15.8399 39.9076 14.6468 39.9008 13.0529C39.8963 11.9726 39.8941 10.8901 39.9008 9.80983C39.9098 8.51306 40.7806 7.42819 42.0136 7.16101C42.1688 7.12646 42.3263 7.12646 42.4838 7.12646C43.44 7.12185 44.394 7.12185 45.348 7.12185Z" fill="#8DC046"/>
<path d="M59.5408 11.4867C59.5408 12.6084 59.5408 13.7301 59.5408 14.8518C59.5408 15.5014 59.2168 15.8423 58.58 15.8423C56.7598 15.8446 54.9396 15.8515 53.1194 15.84C51.6434 15.8307 50.4622 14.6192 50.4554 13.1105C50.4464 11.3992 50.4532 9.69009 50.4532 7.97873C50.4532 7.6148 50.6062 7.3361 50.9347 7.18638C51.2294 7.05279 51.5106 7.11037 51.7491 7.32689C51.9561 7.51576 52.0259 7.76221 52.0259 8.04552C52.0214 9.64403 52.0236 11.2402 52.0236 12.8387C52.0236 13.1336 52.0574 13.4215 52.2261 13.6702C52.4129 13.9443 52.6626 14.1056 52.9979 14.1056C54.5661 14.1056 56.1343 14.1009 57.7025 14.1102C57.9388 14.1125 57.9725 14.0019 57.9725 13.7992C57.968 11.8944 57.9725 9.99183 57.968 8.08698C57.968 7.79907 58.0243 7.53879 58.238 7.34071C58.6655 6.94454 59.3135 7.14032 59.489 7.71384C59.5295 7.84744 59.5363 7.98333 59.5363 8.12153C59.5408 9.24555 59.5408 10.365 59.5408 11.4867Z" fill="#8DC046"/>
<path d="M12.4243 4.94757C13.0723 5.00055 13.7833 4.97521 14.4898 5.00515C15.0343 5.02819 15.4348 5.3115 15.6868 5.81823C15.977 6.40557 15.4078 6.88697 14.9758 6.83169C13.772 6.67736 12.5638 6.56911 11.3556 6.46776C10.8066 6.42169 10.2553 6.38715 9.70635 6.36181C7.85688 6.27428 6.00516 6.22131 4.15345 6.26968C2.90247 6.30192 1.64924 6.32726 0.400509 6.44012C0.247511 6.45394 0.0675145 6.48849 0.00676555 6.27659C-0.0382337 6.11996 0.105764 5.94721 0.33751 5.91036C0.967499 5.80671 1.59749 5.70536 2.23198 5.62935C3.36596 5.49346 4.49994 5.36217 5.63842 5.25391C6.43716 5.1779 7.24039 5.15026 8.04138 5.09038C9.48136 4.98212 10.9258 5.01897 12.4243 4.94757Z" fill="#8DC046"/>
<path d="M12.3636 9.89044C13.1825 9.89044 14.0015 9.88583 14.8205 9.89274C15.1693 9.89504 15.455 10.0425 15.5923 10.3903C15.7273 10.7335 15.59 11.0214 15.3605 11.2701C15.0635 11.5926 14.6855 11.7124 14.2648 11.664C13.1308 11.5327 11.9946 11.4268 10.8561 11.3369C8.51388 11.1504 6.16716 11.1227 3.82045 11.1619C2.80572 11.178 1.79099 11.2517 0.776256 11.2978C0.690757 11.3001 0.600758 11.3024 0.51751 11.2862C0.391512 11.2632 0.292514 11.1872 0.283514 11.0513C0.272264 10.897 0.391512 10.8417 0.51301 10.8233C0.947253 10.7496 1.38375 10.6828 1.82024 10.6183C3.14547 10.4202 4.47519 10.2613 5.80717 10.1461C6.92765 10.0494 8.05038 9.95954 9.17761 9.9319C10.2396 9.90426 11.3016 9.8628 12.3636 9.82825C12.3636 9.84667 12.3636 9.86971 12.3636 9.89044Z" fill="#1476BC"/>
<path d="M16.058 8.42788C16.0625 8.92079 15.563 9.36764 15.059 9.29624C13.6865 9.10276 12.3096 8.93461 10.9303 8.80102C10.1856 8.72732 9.4386 8.68355 8.69386 8.63518C7.63863 8.56839 6.5834 8.56378 5.52817 8.59372C4.50443 8.62136 3.48295 8.69046 2.46147 8.75265C2.28822 8.76187 2.14872 8.74114 2.12172 8.54996C2.09697 8.3703 2.22522 8.29429 2.38272 8.26896C3.16796 8.14688 3.95544 8.0202 4.74293 7.90503C5.85891 7.7415 6.97714 7.62633 8.09987 7.52959C8.64886 7.48122 9.20011 7.44437 9.7491 7.42594C10.6468 7.3983 11.5468 7.35684 12.4423 7.38448C13.34 7.41212 14.2378 7.38678 15.1333 7.4651C15.6372 7.50886 16.0535 7.93728 16.058 8.42788Z" fill="#8DC046"/>
<path d="M12.7416 13.9328C11.9586 13.8545 11.1756 13.7715 10.3903 13.7024C9.6456 13.6356 8.90087 13.5757 8.15388 13.5274C6.8714 13.4445 5.58667 13.4721 4.30194 13.4813C4.0342 13.4836 3.76645 13.5113 3.50096 13.5205C3.32321 13.5274 3.15671 13.4813 3.01721 13.3615C2.94522 13.2994 2.86197 13.2326 2.89347 13.1197C2.92497 13.0068 3.01496 12.9562 3.12296 12.94C3.55946 12.8755 3.99595 12.8041 4.43244 12.7489C6.52041 12.4863 8.61512 12.3274 10.7188 12.2859C11.7516 12.2652 12.7821 12.3135 13.8125 12.3089C14.0803 12.3066 14.2828 12.4241 14.3953 12.6821C14.5078 12.9423 14.411 13.1496 14.2355 13.3385C13.8305 13.783 13.3243 13.9558 12.7416 13.9328Z" fill="#1476BC"/>
<path d="M6.74314 3.78667C5.67216 3.78207 4.60118 3.78437 3.53245 3.8742C3.4042 3.88572 3.29395 3.85808 3.2287 3.736C3.1567 3.5978 3.2512 3.51027 3.3322 3.42045C3.4852 3.25 3.68545 3.1832 3.90144 3.15556C5.37742 2.95748 6.85339 2.77321 8.33837 2.66035C9.79184 2.54979 11.2476 2.51294 12.7055 2.52676C13.394 2.53367 13.9835 2.77552 14.4448 3.31219C14.6135 3.50797 14.6563 3.75443 14.555 3.95942C14.456 4.16211 14.2288 4.27267 13.9768 4.24734C12.6133 4.11144 11.2521 3.95942 9.88409 3.8719C8.83561 3.8074 7.79163 3.78207 6.74314 3.78667Z" fill="#8DC046"/>
<path d="M7.88613 16.3881C6.9119 16.4181 5.95116 16.2246 5.01968 15.8722C4.81043 15.7939 4.66868 15.6741 4.71143 15.4299C4.75193 15.1973 4.92743 15.1397 5.12993 15.119C6.9479 14.9393 8.76587 14.8011 10.5928 14.7689C10.8831 14.7643 11.1733 14.7297 11.4658 14.7366C11.7156 14.7412 11.9001 14.8702 11.9293 15.066C11.9608 15.2917 11.8146 15.3954 11.6413 15.4852C10.6513 15.9988 9.28336 16.4342 7.88613 16.3881Z" fill="#1476BC"/>
<path d="M7.71739 1.45181e-05C9.32611 1.45181e-05 10.5343 0.292536 11.6796 0.863759C11.7921 0.921342 11.9113 0.972015 11.9451 1.11712C11.9968 1.33364 11.8618 1.51329 11.6211 1.50869C10.9753 1.49487 10.3296 1.48105 9.68386 1.44189C9.29686 1.41886 8.91212 1.41656 8.52512 1.41656C7.44514 1.41425 6.36516 1.41656 5.28518 1.42116C5.08943 1.42116 4.89144 1.45111 4.69569 1.45571C4.51344 1.45802 4.3402 1.41195 4.2907 1.20004C4.2367 0.978925 4.38069 0.875275 4.54719 0.796963C5.65867 0.269503 6.82415 -0.0022888 7.71739 1.45181e-05Z" fill="#8DC046"/>
<path d="M22.8731 30.2311C23.1544 29.7865 23.4333 29.342 23.6471 28.8583C23.6943 28.75 23.7236 28.6026 23.8676 28.6072C24.0228 28.6095 24.0521 28.7638 24.0971 28.8813C24.2343 29.2429 24.3648 29.6046 24.5021 29.9662C24.5268 30.0307 24.5358 30.132 24.6123 30.1366C24.7023 30.1412 24.7248 30.0353 24.7586 29.9685C25.0533 29.3834 25.2671 28.7708 25.3503 28.1166C25.3571 28.0613 25.3638 28.0037 25.3773 27.9508C25.3998 27.8632 25.4538 27.8057 25.5438 27.8057C25.6383 27.8057 25.6833 27.8794 25.6901 27.9646C25.6968 28.0429 25.6968 28.1258 25.6833 28.2041C25.5596 29.0564 25.1771 29.8119 24.8103 30.5696C24.7046 30.7862 24.4953 30.77 24.3806 30.5259C24.2231 30.1919 24.1016 29.8418 23.9643 29.4986C23.9283 29.4111 23.9193 29.3097 23.8158 29.2245C23.6718 29.4779 23.5346 29.7266 23.3906 29.9731C23.2466 30.2241 23.1071 30.4752 22.9519 30.7194C22.8326 30.9059 22.6999 30.899 22.5964 30.7009C22.5311 30.5743 22.4906 30.4314 22.4591 30.2909C22.3129 29.6069 22.1756 28.9182 22.0339 28.2318C22.0046 28.0913 22.0451 27.9807 22.1779 27.9439C22.3219 27.9047 22.3759 28.0314 22.3961 28.1396C22.4929 28.621 22.5761 29.1047 22.6661 29.5884C22.7066 29.8003 22.7561 30.0099 22.8011 30.2218C22.8304 30.2241 22.8529 30.2288 22.8731 30.2311Z" fill="#8DC046"/>
<path d="M65.9284 29.4503C66.1241 29.2222 66.2591 29.0149 66.4369 28.8491C66.5674 28.727 66.7069 28.6234 66.8734 28.5681C67.2221 28.4529 67.5101 28.6648 67.5259 29.0403C67.5529 29.7151 66.9859 30.5167 66.3536 30.6941C66.2051 30.7355 66.0544 30.7516 65.9261 30.6434C65.8159 30.5489 65.7911 30.6296 65.7776 30.7171C65.7281 31.0188 65.6854 31.3229 65.6314 31.6246C65.6022 31.7904 65.6044 32.0369 65.3682 31.9954C65.1274 31.954 65.2017 31.7259 65.2399 31.5555C65.4424 30.6825 65.5954 29.8027 65.5819 28.9021C65.5819 28.879 65.5819 28.8537 65.5841 28.8307C65.6066 28.6717 65.6449 28.4921 65.8361 28.5174C66.0116 28.5428 66.0004 28.7293 65.9914 28.8744C65.9801 29.0449 65.9531 29.2199 65.9284 29.4503ZM67.1456 29.2199C67.1389 29.1209 67.1636 28.9942 67.0354 28.9389C66.9206 28.8883 66.8149 28.9412 66.7294 29.0126C66.4121 29.2752 66.1646 29.5954 66.0026 29.98C65.9576 30.086 65.9306 30.2035 66.0296 30.2933C66.1264 30.3831 66.2434 30.3762 66.3626 30.3347C66.7181 30.2104 67.1389 29.6207 67.1456 29.2199Z" fill="#8DC046"/>
<path d="M35.5247 29.9823C35.3267 30.2426 35.1579 30.4545 34.9262 30.5996C34.7282 30.724 34.5167 30.8092 34.3052 30.6733C34.1004 30.5443 34.0847 30.3163 34.1117 30.0906C34.1814 29.5355 34.4627 29.1163 34.9037 28.8053C35.0882 28.674 35.3019 28.6395 35.5134 28.7201C35.6619 28.7777 35.7136 28.7293 35.7406 28.5888C35.7924 28.3193 35.8486 28.0521 35.9049 27.7849C35.9206 27.7066 35.9409 27.626 35.9701 27.5523C36.0151 27.4371 36.0961 27.3542 36.2244 27.4003C36.3414 27.4417 36.3481 27.5569 36.3301 27.6652C36.3166 27.7435 36.2874 27.8195 36.2649 27.8978C36.0691 28.5542 35.9004 29.2176 35.8756 29.9086C35.8599 30.2956 35.8936 30.3186 36.2536 30.2679C36.2941 30.2633 36.3346 30.2564 36.3616 30.2933C36.3999 30.3485 36.3819 30.4038 36.3459 30.4499C36.2176 30.6157 36.0511 30.7378 35.8396 30.7032C35.6394 30.671 35.5809 30.4867 35.5517 30.3048C35.5359 30.2149 35.5359 30.1274 35.5247 29.9823ZM34.4559 30.003C34.4402 30.3716 34.5617 30.4522 34.8137 30.3048C35.1579 30.1044 35.3469 29.7681 35.5134 29.4157C35.5697 29.2936 35.5967 29.1669 35.4797 29.061C35.3627 28.9573 35.2299 28.9642 35.1062 29.0402C34.7237 29.2798 34.5324 29.6437 34.4559 30.003Z" fill="#8DC046"/>
<path d="M32.9732 30.086C32.8157 30.2288 32.6672 30.3716 32.5119 30.5029C32.2959 30.6848 32.0597 30.8115 31.7762 30.6802C31.585 30.5904 31.5062 30.2702 31.585 29.9362C31.6952 29.471 31.9607 29.1047 32.3297 28.8214C32.5142 28.6809 32.7414 28.6303 32.9574 28.7155C33.1397 28.7846 33.1757 28.704 33.2049 28.5543C33.2634 28.2617 33.3287 27.9715 33.3917 27.6813C33.4097 27.603 33.4232 27.5224 33.4817 27.4625C33.5334 27.4095 33.5964 27.375 33.6729 27.3957C33.7539 27.4187 33.7764 27.4855 33.7854 27.5615C33.7967 27.6698 33.7629 27.7688 33.7314 27.8679C33.5334 28.5059 33.3894 29.1577 33.3287 29.8257C33.3197 29.9132 33.3197 30.003 33.3332 30.0906C33.3579 30.2702 33.4344 30.3808 33.6369 30.291C33.6932 30.2656 33.7607 30.2242 33.8102 30.291C33.8619 30.3624 33.8147 30.4292 33.7652 30.4844C33.6369 30.6249 33.4839 30.7332 33.2882 30.694C33.0947 30.6549 33.0474 30.4821 33.0159 30.3117C33.0002 30.2334 32.9867 30.1551 32.9732 30.086ZM31.9022 30.0652C31.8977 30.367 32.017 30.4476 32.2307 30.3278C32.5929 30.1274 32.8044 29.7911 32.9732 29.4226C33.0339 29.289 33.0429 29.1577 32.9214 29.0495C32.8089 28.9481 32.6762 28.9735 32.5704 29.0426C32.1812 29.2913 31.972 29.6645 31.9022 30.0652Z" fill="#8DC046"/>
<path d="M56.5101 30.0537C56.2716 30.2311 56.0803 30.3923 55.8576 30.4936C55.4166 30.694 55.1083 30.4913 55.1353 30.0007C55.1556 29.6207 55.2501 29.2522 55.3873 28.8974C55.4346 28.7731 55.5156 28.6441 55.6686 28.7247C55.8081 28.7984 55.7946 28.9366 55.7203 29.061C55.5561 29.3397 55.4886 29.6391 55.5066 29.9639C55.5178 30.1597 55.6146 30.2149 55.7901 30.1643C56.2828 30.0284 56.5731 29.6552 56.591 29.1301C56.5955 29.0103 56.5843 28.8859 56.6293 28.7708C56.663 28.6855 56.7103 28.6026 56.8138 28.6095C56.9308 28.6187 56.9623 28.7132 56.9713 28.8168C56.9983 29.084 56.942 29.3489 56.924 29.6115C56.879 30.2242 56.8115 30.8322 56.5325 31.3919C56.2356 31.9862 55.3738 32.03 55.0026 31.468C54.9418 31.3735 54.9036 31.263 54.9913 31.18C55.1038 31.0741 55.1578 31.2146 55.2118 31.2745C55.3558 31.4311 55.5313 31.5048 55.7316 31.5324C55.9318 31.5601 56.0916 31.4979 56.1928 31.3136C56.3976 30.9382 56.5056 30.5351 56.5101 30.0537Z" fill="#8DC046"/>
<path d="M80.6431 30.0814C80.4204 30.2518 80.2854 30.4752 80.0582 30.5835C79.8714 30.6733 79.6824 30.7839 79.4822 30.6296C79.2864 30.4775 79.2774 30.261 79.3247 30.0353C79.4394 29.4802 79.7499 29.0472 80.1796 28.7132C80.5104 28.4575 80.8231 28.522 81.0796 28.8537C81.1291 28.9182 81.1134 28.9896 81.1066 29.0633C81.0841 29.3604 80.9941 29.6483 81.0031 29.9501C81.0076 30.1228 81.0279 30.2887 81.1516 30.4223C81.2416 30.5167 81.2754 30.6157 81.1561 30.7079C81.0459 30.7931 80.9356 30.7816 80.8389 30.6779C80.6971 30.519 80.6881 30.3117 80.6431 30.0814ZM79.6847 30.0054C79.6779 30.2841 79.7522 30.3601 79.9097 30.3117C80.2404 30.2104 80.7399 29.4802 80.7174 29.1324C80.7039 28.9251 80.5891 28.8422 80.4181 28.9481C80.0019 29.2038 79.8084 29.623 79.6847 30.0054Z" fill="#8DC046"/>
<path d="M30.6355 30.0722C30.397 30.2841 30.2305 30.519 29.9672 30.6273C29.8007 30.6964 29.6387 30.7516 29.4767 30.6273C29.3148 30.5006 29.2743 30.3186 29.3058 30.1274C29.407 29.5171 29.7265 29.0357 30.2147 28.6856C30.5477 28.446 30.8762 28.5312 31.0877 28.8629C31.135 28.9389 31.1102 29.0195 31.099 29.0979C31.0607 29.3835 30.9955 29.6668 31.0022 29.9593C31.0067 30.132 31.0315 30.2956 31.1575 30.4269C31.2407 30.5144 31.2677 30.6088 31.162 30.6964C31.0562 30.7839 30.946 30.7839 30.8447 30.6825C30.6872 30.5282 30.6872 30.3117 30.6355 30.0722ZM30.7052 29.2545C30.7232 28.955 30.6152 28.856 30.424 28.9366C30.1135 29.0656 29.6545 29.805 29.677 30.139C29.6882 30.3163 29.7895 30.3854 29.929 30.2956C30.3295 30.0376 30.6175 29.6875 30.7052 29.2545Z" fill="#8DC046"/>
<path d="M41.6175 30.0698C41.4488 30.231 41.3228 30.3761 41.1721 30.489C40.9696 30.641 40.7468 30.7954 40.4813 30.6456C40.2878 30.5374 40.2271 30.261 40.3261 29.9247C40.4791 29.3972 40.7783 28.9688 41.2306 28.6694C41.5523 28.4575 41.8988 28.5588 42.0765 28.8859C42.1193 28.9642 42.0945 29.0425 42.0833 29.1208C42.0473 29.3673 42.0045 29.6137 41.9843 29.8625C41.9685 30.056 41.9775 30.2541 42.1193 30.4084C42.2003 30.4982 42.2768 30.5811 42.153 30.6894C42.0383 30.7907 41.9213 30.7769 41.8155 30.6733C41.7053 30.5673 41.685 30.4199 41.6536 30.2794C41.6423 30.2264 41.6355 30.1712 41.6175 30.0698ZM41.6895 29.1738C41.6873 28.9135 41.5523 28.826 41.3431 28.9734C41.0213 29.2015 40.8323 29.5377 40.6951 29.904C40.6681 29.9777 40.6568 30.0629 40.6591 30.1412C40.6613 30.3024 40.7446 30.3554 40.8931 30.3071C41.2081 30.2034 41.6918 29.517 41.6895 29.1738Z" fill="#8DC046"/>
<path d="M74.2893 29.9662C74.4355 29.7105 74.5795 29.4502 74.7302 29.1969C74.782 29.1094 74.845 29.0218 74.9192 28.9504C75.214 28.6763 75.5222 28.7569 75.6572 29.1416C75.7472 29.4019 75.7427 29.6829 75.7967 29.9501C75.8282 30.109 75.8552 30.2633 76.0757 30.2103C76.1252 30.1988 76.1702 30.2149 76.195 30.2656C76.2242 30.3255 76.1995 30.3762 76.1612 30.4199C76.0555 30.5489 75.9205 30.6019 75.7607 30.5743C75.6077 30.5489 75.5267 30.4384 75.4997 30.2956C75.4502 30.0353 75.4187 29.7704 75.376 29.5078C75.358 29.3973 75.3467 29.2637 75.2252 29.2268C75.088 29.1877 75.007 29.312 74.9485 29.4088C74.7752 29.6967 74.6177 29.9961 74.4535 30.2887C74.4378 30.3163 74.4242 30.3462 74.4085 30.3739C74.3095 30.5259 74.2263 30.7424 74.0035 30.6687C73.7628 30.5904 73.855 30.3601 73.8843 30.1896C73.9518 29.8142 73.9405 29.4341 73.99 29.0587C73.9945 29.0195 73.9923 28.9781 74.0013 28.9389C74.0283 28.8237 74.0755 28.7086 74.2128 28.7201C74.3365 28.7316 74.3635 28.8445 74.3748 28.955C74.395 29.1439 74.3433 29.3236 74.3185 29.5078C74.2983 29.6575 74.2713 29.8073 74.2465 29.957C74.2623 29.9616 74.2758 29.9639 74.2893 29.9662Z" fill="#8DC046"/>
<path d="M25.7936 29.9155C25.8341 29.4802 26.0501 29.031 26.4641 28.6878C26.5833 28.5888 26.7228 28.5358 26.8735 28.5128C27.1548 28.4713 27.346 28.6832 27.2875 28.9688C27.2313 29.2429 27.0355 29.4111 26.8398 29.5723C26.6868 29.6967 26.5181 29.8026 26.3493 29.9063C26.2301 29.98 26.1423 30.056 26.1918 30.2126C26.2413 30.3669 26.3628 30.4222 26.5046 30.4176C26.707 30.413 26.887 30.3301 27.0468 30.2057C27.121 30.1481 27.1885 30.079 27.2628 30.0191C27.319 29.9731 27.3708 29.874 27.4585 29.9523C27.5215 30.0076 27.4833 30.0859 27.454 30.1527C27.2785 30.5443 26.6688 30.8529 26.2593 30.7585C25.9511 30.6871 25.7891 30.4291 25.7936 29.9155ZM26.2188 29.6276C26.4866 29.5124 26.6665 29.3604 26.824 29.1807C26.896 29.1001 26.9883 28.9872 26.887 28.8836C26.7925 28.7869 26.6935 28.8951 26.6215 28.9573C26.4258 29.1185 26.3088 29.335 26.2188 29.6276Z" fill="#8DC046"/>
<path d="M46.7317 30.777C46.2322 30.7724 45.9667 30.4637 46.005 30.0031C46.05 29.4825 46.2637 29.0449 46.662 28.7109C46.9432 28.4737 47.2627 28.4414 47.4292 28.6303C47.5867 28.8099 47.5282 29.1232 47.2762 29.3835C47.076 29.5908 46.833 29.7428 46.59 29.8925C46.4752 29.9639 46.3402 30.0307 46.41 30.208C46.4752 30.3716 46.6057 30.4384 46.77 30.4177C47.0377 30.3831 47.256 30.2449 47.4427 30.0491C47.4989 29.9892 47.5619 29.8787 47.6542 29.9455C47.7487 30.0146 47.6947 30.1274 47.6384 30.2057C47.3954 30.5443 47.0782 30.7608 46.7317 30.777ZM46.4392 29.646C46.7182 29.4848 46.9432 29.3374 47.1052 29.1048C47.1502 29.0403 47.202 28.9573 47.1345 28.8859C47.0557 28.803 46.9702 28.8629 46.9027 28.9136C46.6777 29.0863 46.5292 29.3121 46.4392 29.646Z" fill="#8DC046"/>
<path d="M72.5928 30.7747C72.1135 30.7793 71.8773 30.5558 71.8345 30.1435C71.7783 29.6046 72.1833 28.8445 72.6558 28.6026C72.739 28.5612 72.8313 28.5266 72.9235 28.5105C73.18 28.469 73.3713 28.6625 73.3375 28.9274C73.3105 29.137 73.2025 29.3028 73.0473 29.4387C72.8493 29.6115 72.64 29.7704 72.4105 29.8971C72.2958 29.9593 72.1743 30.0238 72.2283 30.1873C72.2823 30.3531 72.415 30.4338 72.577 30.4176C72.829 30.3946 73.036 30.2679 73.225 30.0998C73.3015 30.0307 73.378 29.8441 73.4973 29.9662C73.5985 30.0698 73.4815 30.2057 73.396 30.3025C73.1575 30.572 72.874 30.7631 72.5928 30.7747ZM72.2688 29.6529C72.55 29.4779 72.784 29.3351 72.9415 29.0955C72.9843 29.0287 73.0293 28.9481 72.9505 28.879C72.8785 28.8145 72.7998 28.8514 72.7368 28.9044C72.5208 29.0863 72.3498 29.3005 72.2688 29.6529Z" fill="#8DC046"/>
<path d="M70.2191 30.0813C70.2551 29.8902 70.3046 29.6046 70.3653 29.3212C70.4013 29.1577 70.3743 29.0725 70.1898 29.084C70.0661 29.0909 69.9378 29.0656 69.9423 28.8974C69.9491 28.7385 70.0818 28.7339 70.1898 28.7454C70.4553 28.7777 70.5588 28.6349 70.5993 28.3953C70.6218 28.2686 70.6578 28.1443 70.7006 28.0222C70.7388 27.9139 70.8153 27.8402 70.9391 27.8863C71.0448 27.9254 71.0695 28.0176 71.0425 28.1258C71.0156 28.2364 70.9886 28.3446 70.9616 28.4552C70.9076 28.6809 70.9278 28.7017 71.1618 28.6763C71.2855 28.6625 71.4115 28.6487 71.5375 28.6487C71.6275 28.6464 71.7198 28.6717 71.722 28.7892C71.7265 28.8974 71.6455 28.9481 71.5555 28.9619C71.362 28.9919 71.164 29.0126 70.9705 29.0333C70.8693 29.0449 70.7793 29.0771 70.7546 29.1877C70.6893 29.494 70.5881 29.7957 70.5948 30.1136C70.6016 30.413 70.7321 30.489 70.9886 30.337C71.0898 30.2771 71.1798 30.1965 71.2788 30.1297C71.3305 30.0929 71.389 30.0491 71.4498 30.1067C71.506 30.1597 71.488 30.2218 71.461 30.284C71.3485 30.5305 70.93 30.7862 70.6601 30.7723C70.3653 30.7562 70.2123 30.5512 70.2191 30.0813Z" fill="#8DC046"/>
<path d="M49.7759 30.1712C49.7737 29.8948 49.8524 29.6299 49.9087 29.3627C49.9447 29.1923 49.9177 29.0748 49.7084 29.0817C49.5892 29.084 49.4789 29.0356 49.4857 28.8905C49.4924 28.7477 49.6162 28.7316 49.7152 28.7454C50.0009 28.7869 50.1134 28.6349 50.1561 28.3746C50.1741 28.2571 50.2102 28.1396 50.2529 28.0268C50.2911 27.9231 50.3676 27.8425 50.4891 27.884C50.5994 27.9208 50.6151 28.0199 50.5926 28.1235C50.5724 28.2249 50.5454 28.3262 50.5206 28.4276C50.4554 28.6809 50.4779 28.704 50.7389 28.6717C50.8469 28.6579 50.9571 28.6464 51.0674 28.6441C51.1619 28.6418 51.2721 28.6487 51.2834 28.7777C51.2946 28.9136 51.1866 28.9527 51.0831 28.9688C50.9054 28.9965 50.7254 29.0195 50.5431 29.0264C50.3924 29.0333 50.3136 29.1024 50.2866 29.2521C50.2416 29.5055 50.1854 29.7566 50.1404 30.0099C50.1157 30.1481 50.1269 30.2932 50.2506 30.3808C50.3699 30.466 50.4779 30.3692 50.5769 30.314C50.6714 30.2587 50.7546 30.1804 50.8446 30.1182C50.8964 30.0813 50.9571 30.0491 51.0156 30.109C51.0606 30.1573 51.0426 30.2126 51.0224 30.2679C50.9121 30.5535 50.4329 30.823 50.1404 30.7654C49.8907 30.7147 49.7714 30.5213 49.7759 30.1712Z" fill="#8DC046"/>
<path d="M76.5977 30.1366C76.5932 29.874 76.6607 29.6253 76.7215 29.3742C76.7642 29.1899 76.7417 29.0725 76.519 29.0794C76.411 29.084 76.3007 29.0379 76.3007 28.9089C76.2985 28.7546 76.4312 28.7316 76.5392 28.7454C76.8295 28.7846 76.933 28.6187 76.9802 28.3654C77.0027 28.2479 77.0365 28.1304 77.0725 28.0152C77.104 27.9116 77.176 27.8471 77.2862 27.877C77.401 27.907 77.4234 28.0037 77.4055 28.1074C77.3897 28.2018 77.365 28.2963 77.3425 28.3907C77.2682 28.6947 77.2749 28.7016 77.5922 28.6602C77.6844 28.6487 77.7812 28.6418 77.8757 28.6464C77.9792 28.6487 78.1007 28.6556 78.1007 28.7984C78.1007 28.9297 77.9837 28.9596 77.8802 28.9734C77.7092 28.9965 77.5359 29.0195 77.3627 29.0287C77.212 29.0356 77.1332 29.1024 77.104 29.2521C77.0522 29.5285 76.9892 29.8026 76.9442 30.0813C76.9262 30.1919 76.9442 30.3117 77.0522 30.3831C77.1647 30.4568 77.2659 30.3923 77.3604 30.3347C77.4684 30.2679 77.5652 30.185 77.6709 30.1136C77.7182 30.0813 77.7744 30.0675 77.8217 30.1159C77.8689 30.1619 77.8577 30.2172 77.8374 30.2725C77.7339 30.5535 77.2075 30.8322 76.9262 30.7562C76.69 30.6917 76.591 30.5051 76.5977 30.1366Z" fill="#8DC046"/>
<path d="M53.2318 29.4272C53.2251 29.9478 52.7729 30.5743 52.2846 30.7332C51.8054 30.8921 51.3644 30.5489 51.4004 30.0215C51.4319 29.5562 51.6141 29.1462 51.9516 28.8238C52.1856 28.6003 52.4781 28.5013 52.7796 28.6395C53.0968 28.7846 53.2273 29.0748 53.2318 29.4272ZM52.8584 29.4595C52.8651 29.2637 52.8381 29.0794 52.6559 28.9758C52.5141 28.8952 52.3566 28.9159 52.2351 29.0218C51.9089 29.3052 51.7491 29.6737 51.7829 30.109C51.8054 30.4015 52.0191 30.5144 52.2734 30.3808C52.6356 30.1896 52.8449 29.8879 52.8584 29.4595Z" fill="#8DC046"/>
<path d="M45.0285 29.9777C44.8282 30.1965 44.7045 30.4291 44.484 30.565C44.3355 30.6572 44.1892 30.7769 44.0048 30.671C43.809 30.5604 43.7258 30.3808 43.7168 30.1527C43.7055 29.8487 43.7865 29.5631 43.8428 29.2706C43.8698 29.1277 43.8945 28.9849 43.9193 28.8421C43.9418 28.727 44.0003 28.6417 44.124 28.6533C44.2477 28.6671 44.2905 28.7615 44.2927 28.879C44.295 29.0195 44.2432 29.1462 44.2005 29.2775C44.115 29.5377 44.034 29.8003 44.0542 30.079C44.061 30.1665 44.052 30.2656 44.1487 30.3093C44.2387 30.3508 44.3197 30.3001 44.3895 30.2449C44.6977 30.0007 44.898 29.6782 45.042 29.312C45.0915 29.1853 45.1387 29.0563 45.195 28.932C45.2377 28.8421 45.3075 28.7638 45.4177 28.803C45.5347 28.8444 45.5257 28.9481 45.5055 29.0471C45.447 29.3466 45.366 29.6437 45.3817 29.9546C45.3907 30.1343 45.4042 30.3094 45.5167 30.4591C45.582 30.5443 45.6157 30.6295 45.5077 30.7055C45.3997 30.7792 45.2962 30.7746 45.2152 30.6687C45.0937 30.5097 45.0757 30.314 45.051 30.1205C45.0465 30.0905 45.042 30.0583 45.0285 29.9777Z" fill="#8DC046"/>
<path d="M59.1965 29.3374C59.1965 29.9385 58.7735 30.5443 58.2853 30.7217C57.8083 30.8944 57.3853 30.6203 57.3763 30.1021C57.3695 29.5769 57.5788 29.1278 57.9703 28.7869C58.2155 28.5727 58.5103 28.5082 58.8072 28.6671C59.0952 28.8214 59.1852 29.1024 59.1965 29.3374ZM57.7408 29.9938C57.734 30.3808 57.9815 30.542 58.301 30.3531C58.6295 30.1597 58.8185 29.8579 58.8388 29.4687C58.85 29.2637 58.8028 29.0518 58.5913 28.9619C58.382 28.8744 58.2088 28.9758 58.0693 29.1393C57.8623 29.3881 57.7745 29.6852 57.7408 29.9938Z" fill="#8DC046"/>
<path d="M69.7038 29.4456C69.6993 30.0007 69.2336 30.6157 68.7138 30.7539C68.2998 30.8645 67.9241 30.5973 67.9038 30.1504C67.8768 29.5631 68.1153 29.0817 68.5676 28.7293C68.7926 28.5542 69.0671 28.5266 69.3258 28.6717C69.6273 28.8352 69.7151 29.1185 69.7038 29.4456ZM69.3641 29.3903C69.3573 29.2383 69.3213 29.0448 69.1143 28.9619C68.9253 28.8859 68.7498 28.9527 68.6238 29.1024C68.3876 29.3857 68.2436 29.7128 68.2796 30.0974C68.3066 30.3854 68.4798 30.4936 68.7386 30.39C69.0873 30.2472 69.3663 29.8234 69.3641 29.3903Z" fill="#8DC046"/>
<path d="M60.8952 29.9478C60.7287 30.1965 60.5622 30.4107 60.3417 30.572C59.9952 30.8253 59.7005 30.7079 59.5993 30.2864C59.5543 30.0998 59.5835 29.9178 59.6195 29.7359C59.6735 29.4595 59.7297 29.1831 59.7837 28.9067C59.8107 28.7639 59.8512 28.6142 60.0335 28.6625C60.2067 28.7086 60.1842 28.8629 60.1505 29.0034C60.083 29.2844 59.957 29.5493 59.9322 29.8441C59.9187 30.0077 59.8355 30.2173 60.02 30.3025C60.191 30.3831 60.326 30.2081 60.4362 30.0906C60.6972 29.8142 60.857 29.471 60.9897 29.114C61.0392 28.9804 61.0685 28.757 61.2597 28.8122C61.4757 28.8744 61.3587 29.0817 61.334 29.2268C61.28 29.5447 61.2035 29.858 61.2732 30.185C61.2935 30.2818 61.3137 30.3739 61.3745 30.4522C61.442 30.5397 61.5027 30.6319 61.3745 30.7148C61.253 30.7931 61.145 30.7609 61.064 30.648C60.9785 30.5282 60.9537 30.3831 60.9425 30.2357C60.9335 30.1505 60.9605 30.0606 60.8952 29.9478Z" fill="#8DC046"/>
<path d="M38.8973 30.2195C39.0908 29.904 39.2596 29.6161 39.4373 29.3351C39.5678 29.1255 39.6961 28.9112 39.8738 28.7339C39.9233 28.6832 39.9818 28.6348 40.0448 28.6095C40.1303 28.5727 40.2181 28.5934 40.2743 28.6786C40.3306 28.7592 40.3036 28.8375 40.2406 28.8951C39.7298 29.3604 39.4193 29.9708 39.0908 30.5673C39.0301 30.6756 38.9671 30.8184 38.8186 30.8C38.6678 30.7815 38.6498 30.6295 38.6138 30.5074C38.4946 30.1136 38.3709 29.7243 38.2539 29.3304C38.2134 29.1922 38.1864 29.0494 38.1909 28.902C38.1954 28.7661 38.2134 28.6256 38.3844 28.6256C38.5374 28.6279 38.5733 28.7615 38.5711 28.8859C38.5621 29.2821 38.6926 29.646 38.8118 30.0145C38.8253 30.0721 38.8546 30.1251 38.8973 30.2195Z" fill="#8DC046"/>
<path d="M62.3892 29.7404C62.5692 29.3512 62.7604 29.0517 63.0237 28.8076C63.1564 28.6855 63.3049 28.5934 63.4894 28.6095C63.6402 28.621 63.7594 28.6993 63.8112 28.8537C63.8382 28.9343 63.8427 29.0149 63.7752 29.0771C63.7077 29.1393 63.6222 29.1393 63.5569 29.084C63.3724 28.9297 63.2397 29.0264 63.1092 29.1623C62.7694 29.517 62.5444 29.9316 62.4612 30.4245C62.45 30.4959 62.4342 30.5673 62.414 30.6364C62.387 30.7193 62.3285 30.77 62.2385 30.77C62.1372 30.77 62.072 30.7078 62.054 30.6157C62.0315 30.4982 62.0157 30.3761 62.0202 30.2564C62.0337 29.8233 62.0112 29.3857 62.0877 28.955C62.099 28.8928 62.1147 28.8283 62.144 28.773C62.198 28.674 62.2835 28.6141 62.3982 28.6556C62.5107 28.697 62.513 28.7984 62.4905 28.8974C62.4432 29.1185 62.3802 29.335 62.3712 29.5608C62.369 29.5976 62.378 29.6345 62.3892 29.7404Z" fill="#8DC046"/>
<path d="M81.7074 30.2218C81.7434 29.3857 81.8581 28.598 82.0269 27.8172C82.0516 27.6997 82.0831 27.5799 82.1641 27.4855C82.2114 27.4302 82.2676 27.3795 82.3486 27.4095C82.4341 27.4417 82.4679 27.5154 82.4589 27.603C82.4454 27.7158 82.4274 27.8264 82.3981 27.9346C82.1664 28.7869 82.0134 29.6483 82.1259 30.5374C82.1439 30.6733 82.0741 30.7792 81.9414 30.8069C81.7906 30.8368 81.7569 30.7055 81.7389 30.595C81.7141 30.4591 81.7141 30.3209 81.7074 30.2218Z" fill="#8DC046"/>
<path d="M43.1003 30.0192C43.1093 30.1873 43.1205 30.3578 43.1295 30.5259C43.1363 30.671 43.0868 30.7931 42.936 30.8092C42.7898 30.8253 42.7605 30.6894 42.747 30.5789C42.6953 30.1689 42.7358 29.7589 42.783 29.3512C42.846 28.8168 42.9225 28.2825 43.0553 27.7573C43.0958 27.5961 43.1453 27.3727 43.3455 27.4187C43.557 27.4671 43.467 27.6882 43.431 27.8333C43.305 28.3493 43.1633 28.8606 43.1205 29.3927C43.1048 29.6 43.1183 29.8119 43.1183 30.0215C43.1138 30.0192 43.107 30.0192 43.1003 30.0192Z" fill="#8DC046"/>
<path d="M78.3009 30.2956C78.3234 29.8142 78.4427 29.3351 78.5102 28.8491C78.5259 28.7362 78.5957 28.651 78.7239 28.6786C78.8477 28.704 78.8859 28.7984 78.8724 28.9159C78.8657 28.9804 78.8522 29.0449 78.8342 29.1048C78.6969 29.5401 78.6564 29.9869 78.6834 30.443C78.6857 30.4821 78.6857 30.5236 78.6834 30.5628C78.6767 30.6733 78.6227 30.7516 78.5147 30.7631C78.3887 30.777 78.3302 30.6871 78.3122 30.5743C78.3032 30.4844 78.3054 30.3969 78.3009 30.2956Z" fill="#8DC046"/>
<path d="M78.7374 27.7527C78.7689 27.5661 78.8837 27.4832 79.0502 27.4855C79.1649 27.4855 79.2414 27.5546 79.2414 27.6836C79.2437 27.861 79.0524 28.1097 78.9264 28.0775C78.7667 28.036 78.7779 27.8725 78.7374 27.7527Z" fill="#8DC046"/>
<path d="M18.3214 3.789H27.3145V5.83435H20.7941V9.28933H26.7408V11.3347H20.7941V15.863H18.3214V3.789Z" fill="#8DC046"/>
<path d="M73.9968 3.72906H80.2697C82.9224 3.72906 84.1846 4.85308 84.1846 7.41898V8.057C84.1846 9.81674 83.5141 10.9408 82.1214 11.3761L84.2678 15.8031H81.6286L79.6959 11.7446H76.4695V15.8008H73.9968V3.72906ZM79.9412 9.69927C81.1201 9.69927 81.7096 9.24551 81.7096 8.057V7.41668C81.7096 6.22586 81.1201 5.77441 79.9412 5.77441H76.4695V9.69927H79.9412Z" fill="#1476BC"/>
<path d="M93.9449 3.72906V8.55912H88.4573V3.72906H85.9846V15.8031H88.4573V10.6045H93.9449V15.4414L96.4176 14.7666V3.72906H93.9449Z" fill="#1476BC"/>
</g>
<defs>
<clipPath id="clip0_1_250">
<rect width="104" height="32" fill="white"/>
</clipPath>
</defs>
</svg>
