<svg width="16" height="22" viewBox="0 0 16 22" fill="none" xmlns="http://www.w3.org/2000/svg">
<path d="M11.6364 16.5C12.0727 15.1293 12.9773 13.9605 13.8727 12.7961C14.1091 12.491 14.3455 12.1859 14.5727 11.8766C15.4727 10.652 16 9.16953 16 7.5668C16 3.38594 12.4182 0 8 0C3.58182 0 0 3.38594 0 7.5625C0 9.16523 0.527273 10.652 1.42727 11.8723C1.65455 12.1816 1.89091 12.4867 2.12727 12.7918C3.02727 13.9563 3.93182 15.1293 4.36364 16.4957H11.6364V16.5ZM8 22C10.0091 22 11.6364 20.4617 11.6364 18.5625V17.875H4.36364V18.5625C4.36364 20.4617 5.99091 22 8 22ZM4.36364 7.5625C4.36364 7.94063 4.03636 8.25 3.63636 8.25C3.23636 8.25 2.90909 7.94063 2.90909 7.5625C2.90909 4.90273 5.18636 2.75 8 2.75C8.4 2.75 8.72727 3.05938 8.72727 3.4375C8.72727 3.81562 8.4 4.125 8 4.125C5.99091 4.125 4.36364 5.66328 4.36364 7.5625Z" fill="#FFCA28"/>
</svg>
