<svg width="20" height="22" viewBox="0 0 20 22" fill="none" xmlns="http://www.w3.org/2000/svg">
<path d="M4.28571 1.375V2.75H2.14286C0.959821 2.75 0 3.67383 0 4.8125V6.875H20V4.8125C20 3.67383 19.0402 2.75 17.8571 2.75H15.7143V1.375C15.7143 0.614453 15.0759 0 14.2857 0C13.4955 0 12.8571 0.614453 12.8571 1.375V2.75H7.14286V1.375C7.14286 0.614453 6.50446 0 5.71429 0C4.92411 0 4.28571 0.614453 4.28571 1.375ZM20 8.25H0V19.9375C0 21.0762 0.959821 22 2.14286 22H17.8571C19.0402 22 20 21.0762 20 19.9375V8.25Z" fill="white"/>
</svg>
