<svg width="24" height="24" viewBox="0 0 24 24" fill="none" xmlns="http://www.w3.org/2000/svg">
<path d="M12 0C18.6274 0 24 5.37258 24 12C24 18.6274 18.6274 24 12 24C5.37258 24 0 18.6274 0 12C0 5.37258 5.37258 0 12 0Z" fill="#1276BB"/>
<path d="M12 0C18.6274 0 24 5.37258 24 12C24 18.6274 18.6274 24 12 24C5.37258 24 0 18.6274 0 12C0 5.37258 5.37258 0 12 0Z" stroke="#E5E7EB"/>
<path d="M16.5 18H7.5V6H16.5V18Z" stroke="#E5E7EB"/>
<path d="M16.5 18H7.5V6H16.5V18Z" stroke="#E5E7EB"/>
<path d="M10.1406 9.09451C9.90938 8.97265 9.61875 8.96864 9.38281 9.08245C9.14687 9.19627 9 9.41052 9 9.64352V14.357C9 14.59 9.14687 14.8042 9.38281 14.918C9.61875 15.0318 9.90938 15.0265 10.1406 14.906L14.6406 12.5493C14.8641 12.4328 15 12.2252 15 12.0002C15 11.7753 14.8641 11.5691 14.6406 11.4512L10.1406 9.09451Z" fill="white"/>
</svg>
