<svg width="14" height="15" viewBox="0 0 14 15" fill="none" xmlns="http://www.w3.org/2000/svg">
<path d="M12.9676 1.02126C12.3687 0.422437 11.4008 0.422437 10.802 1.02126L9.97891 1.84158L12.6559 4.51853L13.4789 3.69548C14.0777 3.09666 14.0777 2.12869 13.4789 1.52986L12.9676 1.02126ZM4.78633 7.03689C4.61953 7.20369 4.49101 7.40876 4.41719 7.63572L3.60781 10.0638C3.52852 10.299 3.59141 10.5588 3.76641 10.7365C3.94141 10.9142 4.20117 10.9744 4.43906 10.8951L6.86719 10.0857C7.09141 10.0119 7.29648 9.88337 7.46601 9.71658L12.0406 5.13923L9.36094 2.45955L4.78633 7.03689ZM2.69727 2.17791C1.24805 2.17791 0.0722656 3.35369 0.0722656 4.80291V11.8029C0.0722656 13.2521 1.24805 14.4279 2.69727 14.4279H9.69726C11.1465 14.4279 12.3223 13.2521 12.3223 11.8029V9.17791C12.3223 8.69392 11.9312 8.30291 11.4473 8.30291C10.9633 8.30291 10.5723 8.69392 10.5723 9.17791V11.8029C10.5723 12.2869 10.1812 12.6779 9.69726 12.6779H2.69727C2.21328 12.6779 1.82227 12.2869 1.82227 11.8029V4.80291C1.82227 4.31892 2.21328 3.92791 2.69727 3.92791H5.32227C5.80625 3.92791 6.19727 3.53689 6.19727 3.05291C6.19727 2.56892 5.80625 2.17791 5.32227 2.17791H2.69727Z" fill="white"/>
</svg>
