<svg width="19" height="18" viewBox="0 0 19 18" fill="none" xmlns="http://www.w3.org/2000/svg">
<path d="M10.625 1.125C10.625 0.502734 10.1223 0 9.5 0C8.87773 0 8.375 0.502734 8.375 1.125V9.65742L5.79453 7.07695C5.35508 6.6375 4.64141 6.6375 4.20195 7.07695C3.7625 7.51641 3.7625 8.23008 4.20195 8.66953L8.70195 13.1695C9.14141 13.609 9.85508 13.609 10.2945 13.1695L14.7945 8.66953C15.234 8.23008 15.234 7.51641 14.7945 7.07695C14.3551 6.6375 13.6414 6.6375 13.202 7.07695L10.625 9.65742V1.125ZM2.75 12.375C1.50898 12.375 0.5 13.384 0.5 14.625V15.75C0.5 16.991 1.50898 18 2.75 18H16.25C17.491 18 18.5 16.991 18.5 15.75V14.625C18.5 13.384 17.491 12.375 16.25 12.375H12.6816L11.0891 13.9676C10.2102 14.8465 8.78633 14.8465 7.90742 13.9676L6.31836 12.375H2.75ZM15.6875 14.3438C15.9113 14.3438 16.1259 14.4326 16.2841 14.5909C16.4424 14.7491 16.5312 14.9637 16.5312 15.1875C16.5312 15.4113 16.4424 15.6259 16.2841 15.7841C16.1259 15.9424 15.9113 16.0312 15.6875 16.0312C15.4637 16.0312 15.2491 15.9424 15.0909 15.7841C14.9326 15.6259 14.8438 15.4113 14.8438 15.1875C14.8438 14.9637 14.9326 14.7491 15.0909 14.5909C15.2491 14.4326 15.4637 14.3438 15.6875 14.3438Z" fill="white"/>
</svg>
