<svg width="25" height="20" viewBox="0 0 25 20" fill="none" xmlns="http://www.w3.org/2000/svg">
<path d="M12.4978 0C8.99119 0 6.18327 1.64286 4.13918 3.59821C2.10811 5.53571 0.749718 7.85714 0.107413 9.45089C-0.0358042 9.80357 -0.0358042 10.1964 0.107413 10.5491C0.749718 12.1429 2.10811 14.4643 4.13918 16.4018C6.18327 18.3571 8.99119 20 12.4978 20C16.0045 20 18.8124 18.3571 20.8565 16.4018C22.8876 14.4598 24.2459 12.1429 24.8926 10.5491C25.0358 10.1964 25.0358 9.80357 24.8926 9.45089C24.2459 7.85714 22.8876 5.53571 20.8565 3.59821C18.8124 1.64286 16.0045 0 12.4978 0ZM6.24837 10C6.24837 8.29504 6.9068 6.6599 8.0788 5.45431C9.2508 4.24872 10.8404 3.57143 12.4978 3.57143C14.1553 3.57143 15.7449 4.24872 16.9169 5.45431C18.0889 6.6599 18.7473 8.29504 18.7473 10C18.7473 11.705 18.0889 13.3401 16.9169 14.5457C15.7449 15.7513 14.1553 16.4286 12.4978 16.4286C10.8404 16.4286 9.2508 15.7513 8.0788 14.5457C6.9068 13.3401 6.24837 11.705 6.24837 10ZM12.4978 7.14286C12.4978 8.71875 11.2523 10 9.72029 10C9.41216 10 9.11705 9.94643 8.83929 9.85268C8.6006 9.77232 8.32285 9.92411 8.33152 10.183C8.34454 10.4911 8.38794 10.7991 8.4704 11.1071C9.06497 13.3929 11.3521 14.75 13.5741 14.1384C15.7962 13.5268 17.1155 11.1741 16.5209 8.88839C16.0392 7.03571 14.4464 5.79018 12.6758 5.71429C12.4241 5.70536 12.2765 5.98661 12.3546 6.23661C12.4458 6.52232 12.4978 6.82589 12.4978 7.14286Z" fill="white"/>
</svg>
