<svg width="37" height="37" viewBox="0 0 37 37" fill="none" xmlns="http://www.w3.org/2000/svg">
<path d="M18.5 0C28.7173 0 37 8.28273 37 18.5C37 28.7173 28.7173 37 18.5 37C8.28273 37 0 28.7173 0 18.5C0 8.28273 8.28273 0 18.5 0Z" fill="#EDB92C"/>
<path d="M18.5 0C28.7173 0 37 8.28273 37 18.5C37 28.7173 28.7173 37 18.5 37C8.28273 37 0 28.7173 0 18.5C0 8.28273 8.28273 0 18.5 0Z" stroke="#E5E7EB"/>
<path d="M28.9062 27.75H8.09375V9.25H28.9062V27.75Z" stroke="#E5E7EB"/>
<g clip-path="url(#clip0_4_1254)">
<path d="M13.25 12.125C13.25 10.9529 14.1917 10 15.35 10H26.9C28.0583 10 29 10.9529 29 12.125V21.6875C29 22.8596 28.0583 23.8125 26.9 23.8125H19.0512C18.6641 22.9658 18.0702 22.2354 17.3319 21.6875H20.6V20.625C20.6 20.0373 21.0692 19.5625 21.65 19.5625H23.75C24.3308 19.5625 24.8 20.0373 24.8 20.625V21.6875H26.9V12.125H15.35V13.7553C14.7331 13.3934 14.0145 13.1875 13.25 13.1875V12.125ZM13.25 14.25C13.6637 14.25 14.0733 14.3324 14.4555 14.4926C14.8376 14.6528 15.1849 14.8876 15.4774 15.1836C15.7699 15.4796 16.0019 15.831 16.1602 16.2177C16.3185 16.6044 16.4 17.0189 16.4 17.4375C16.4 17.8561 16.3185 18.2706 16.1602 18.6573C16.0019 19.044 15.7699 19.3954 15.4774 19.6914C15.1849 19.9874 14.8376 20.2222 14.4555 20.3824C14.0733 20.5426 13.6637 20.625 13.25 20.625C12.8363 20.625 12.4267 20.5426 12.0445 20.3824C11.6624 20.2222 11.3151 19.9874 11.0226 19.6914C10.7301 19.3954 10.4981 19.044 10.3398 18.6573C10.1815 18.2706 10.1 17.8561 10.1 17.4375C10.1 17.0189 10.1815 16.6044 10.3398 16.2177C10.4981 15.831 10.7301 15.4796 11.0226 15.1836C11.3151 14.8876 11.6624 14.6528 12.0445 14.4926C12.4267 14.3324 12.8363 14.25 13.25 14.25ZM12.3739 21.6875H14.1228C16.5411 21.6875 18.5 23.6697 18.5 26.1135C18.5 26.6016 18.1095 27 17.6239 27H8.87609C8.39047 27 8 26.6049 8 26.1135C8 23.6697 9.95891 21.6875 12.3739 21.6875Z" fill="white"/>
</g>
<defs>
<clipPath id="clip0_4_1254">
<path d="M8.09375 9.25H28.9062V27.75H8.09375V9.25Z" fill="white"/>
</clipPath>
</defs>
</svg>
