<svg width="42" height="42" viewBox="0 0 42 42" fill="none" xmlns="http://www.w3.org/2000/svg">
<g clip-path="url(#clip0_4_279)">
<path d="M30.9631 21C30.958 19.4313 30.7899 17.8673 30.4614 16.3333H34.6614C34.4462 15.6931 34.185 15.0692 33.8797 14.4667H29.9714C29.2371 12.0119 28.0975 9.69722 26.5997 7.61834C25.643 7.21608 24.6455 6.91878 23.6247 6.73167C25.677 8.93512 27.2256 11.5585 28.1631 14.42H21.8747V6.53334H20.1247V14.4317H13.8364C14.7758 11.565 16.3285 8.9374 18.3864 6.73167C17.37 6.91584 16.3765 7.2092 15.4231 7.60667C13.9194 9.67684 12.7719 11.9836 12.0281 14.4317H8.0964C7.78561 15.0452 7.52044 15.6808 7.30307 16.3333H11.5381C11.2096 17.8673 11.0414 19.4313 11.0364 21C11.0399 22.7159 11.2356 24.426 11.6197 26.0983H7.48974C7.72977 26.7528 8.01835 27.3885 8.35307 28H12.1214C12.8353 30.2352 13.8942 32.3452 15.2597 34.2533C16.2374 34.6725 17.2587 34.9816 18.3047 35.175C16.4004 33.0983 14.936 30.6576 13.9997 28H20.1364V35.3967H21.8864V28H27.9997C27.06 30.6586 25.5916 33.0993 23.6831 35.175C24.734 34.9749 25.7593 34.658 26.7397 34.23C28.1031 32.329 29.1619 30.2271 29.8781 28H33.6114C33.9446 27.3998 34.2331 26.7759 34.4747 26.1333H30.3331C30.7355 24.4514 30.9469 22.7294 30.9631 21ZM20.1247 26.0983H13.4281C12.6072 22.8874 12.5711 19.5261 13.3231 16.2983H20.1247V26.0983ZM28.5714 26.0983H21.8747V16.3333H28.6764C29.0116 17.866 29.176 19.4311 29.1664 21C29.1773 22.7174 28.9775 24.4296 28.5714 26.0983Z" fill="#43B150"/>
<path d="M21 2.33334C17.3081 2.33334 13.6991 3.42812 10.6294 5.47924C7.55966 7.53036 5.1671 10.4457 3.75427 13.8566C2.34143 17.2675 1.97177 21.0207 2.69203 24.6417C3.41228 28.2627 5.19011 31.5888 7.80069 34.1993C10.4113 36.8099 13.7374 38.5877 17.3583 39.308C20.9793 40.0283 24.7326 39.6586 28.1434 38.2458C31.5543 36.8329 34.4697 34.4404 36.5208 31.3706C38.5719 28.3009 39.6667 24.6919 39.6667 21C39.6667 16.0493 37.7 11.3014 34.1993 7.80068C30.6987 4.3 25.9507 2.33334 21 2.33334ZM21 37.3333C17.7696 37.3333 14.6117 36.3754 11.9257 34.5807C9.2397 32.7859 7.14622 30.235 5.90999 27.2505C4.67376 24.266 4.3503 20.9819 4.98053 17.8135C5.61075 14.6452 7.16635 11.7348 9.45061 9.45059C11.7349 7.16633 14.6452 5.61074 17.8135 4.98051C20.9819 4.35028 24.266 4.67374 27.2505 5.90997C30.235 7.1462 32.786 9.23969 34.5807 11.9257C36.3754 14.6117 37.3334 17.7696 37.3334 21C37.3334 25.3319 35.6125 29.4863 32.5494 32.5494C29.4863 35.6125 25.3319 37.3333 21 37.3333Z" fill="#43B150"/>
</g>
<defs>
<clipPath id="clip0_4_279">
<rect width="42" height="42" fill="white"/>
</clipPath>
</defs>
</svg>
