<svg width="20" height="18" viewBox="0 0 20 18" fill="none" xmlns="http://www.w3.org/2000/svg">
<path d="M19.6338 9.90804C20.1221 9.4058 20.1221 8.59018 19.6338 8.08795L14.6335 2.94509C14.1452 2.44286 13.3522 2.44286 12.8639 2.94509C12.3756 3.44732 12.3756 4.26295 12.8639 4.76518L15.7312 7.71429H7.50037C6.80893 7.71429 6.25031 8.28884 6.25031 9C6.25031 9.71116 6.80893 10.2857 7.50037 10.2857H15.7312L12.8639 13.2348C12.3756 13.7371 12.3756 14.5527 12.8639 15.0549C13.3522 15.5571 14.1452 15.5571 14.6335 15.0549L19.6338 9.91205V9.90804ZM6.25031 2.57143C6.94175 2.57143 7.50037 1.99688 7.50037 1.28571C7.50037 0.574554 6.94175 0 6.25031 0H3.75018C1.67977 0 0 1.72768 0 3.85714V14.1429C0 16.2723 1.67977 18 3.75018 18H6.25031C6.94175 18 7.50037 17.4254 7.50037 16.7143C7.50037 16.0031 6.94175 15.4286 6.25031 15.4286H3.75018C3.05874 15.4286 2.50012 14.854 2.50012 14.1429V3.85714C2.50012 3.14598 3.05874 2.57143 3.75018 2.57143H6.25031Z" fill="white"/>
</svg>
