<svg width="98" height="37" viewBox="0 0 98 37" fill="none" xmlns="http://www.w3.org/2000/svg">
<rect width="3" height="37" rx="1.5" fill="#AFAFAF"/>
<rect x="5" y="9" width="3" height="28" rx="1.5" fill="#AFAFAF"/>
<rect x="10" y="4" width="3" height="33" rx="1.5" fill="#AFAFAF"/>
<rect x="15" y="20" width="3" height="17" rx="1.5" fill="#AFAFAF"/>
<rect x="20" y="27" width="3" height="10" rx="1.5" fill="#AFAFAF"/>
<rect x="25" y="13" width="3" height="24" rx="1.5" fill="#AFAFAF"/>
<rect x="30" y="7" width="3" height="30" rx="1.5" fill="#AFAFAF"/>
<rect x="35" y="17" width="3" height="20" rx="1.5" fill="#AFAFAF"/>
<rect x="40" width="3" height="37" rx="1.5" fill="#AFAFAF"/>
<rect x="45" y="15" width="3" height="22" rx="1.5" fill="#AFAFAF"/>
<rect x="50" y="6" width="3" height="31" rx="1.5" fill="#AFAFAF"/>
<rect x="55" y="2" width="3" height="35" rx="1.5" fill="#AFAFAF"/>
<rect x="60" y="12" width="3" height="25" rx="1.5" fill="#AFAFAF"/>
<rect x="65" y="5" width="3" height="32" rx="1.5" fill="#AFAFAF"/>
<rect x="70" width="3" height="37" rx="1.5" fill="#AFAFAF"/>
<rect x="75" y="12" width="3" height="25" rx="1.5" fill="#AFAFAF"/>
<rect x="80" y="20" width="3" height="17" rx="1.5" fill="#AFAFAF"/>
<rect x="85" width="3" height="37" rx="1.5" fill="#AFAFAF"/>
<rect x="90" y="7" width="3" height="30" rx="1.5" fill="#AFAFAF"/>
<rect x="95" y="20" width="3" height="17" rx="1.5" fill="#AFAFAF"/>
</svg>
