<svg width="16" height="15" viewBox="0 0 16 15" fill="none" xmlns="http://www.w3.org/2000/svg">
<path d="M9.59375 0.587824C9.23438 0.747199 9 1.10657 9 1.50032V3.50032H5.5C2.4625 3.50032 0 5.96282 0 9.00032C0 12.5409 2.54688 14.1222 3.13125 14.4409C3.20937 14.4847 3.29688 14.5003 3.38438 14.5003C3.725 14.5003 4 14.2222 4 13.8847C4 13.6503 3.86562 13.4347 3.69375 13.2753C3.4 12.9972 3 12.4503 3 11.5003C3 9.84407 4.34375 8.50032 6 8.50032H9V10.5003C9 10.8941 9.23125 11.2534 9.59375 11.4128C9.95625 11.5722 10.375 11.5066 10.6687 11.2441L15.6687 6.74407C15.8781 6.55345 16 6.2847 16 6.00032C16 5.71595 15.8812 5.4472 15.6687 5.25657L10.6687 0.756574C10.375 0.490949 9.95312 0.425324 9.59375 0.587824Z" fill="#8DC046"/>
</svg>
