<svg width="19" height="22" viewBox="0 0 19 22" fill="none" xmlns="http://www.w3.org/2000/svg">
<path d="M9.49906 0C8.7484 0 8.14194 0.614453 8.14194 1.375V2.2C5.046 2.83594 2.71344 5.61172 2.71344 8.9375V9.74531C2.71344 11.7648 1.97974 13.7156 0.656546 15.2281L0.34271 15.5848C-0.0135348 15.9887 -0.0983552 16.5688 0.117937 17.0629C0.334228 17.557 0.821945 17.875 1.35631 17.875H17.6418C18.1762 17.875 18.6597 17.557 18.8802 17.0629C19.1007 16.5688 19.0117 15.9887 18.6554 15.5848L18.3416 15.2281C17.0184 13.7156 16.2847 11.7691 16.2847 9.74531V8.9375C16.2847 5.61172 13.9521 2.83594 10.8562 2.2V1.375C10.8562 0.614453 10.2497 0 9.49906 0ZM11.4202 21.1965C11.9292 20.6809 12.2133 19.9805 12.2133 19.25H9.49906H6.78481C6.78481 19.9805 7.06896 20.6809 7.57788 21.1965C8.08681 21.7121 8.77809 22 9.49906 22C10.22 22 10.9113 21.7121 11.4202 21.1965Z" fill="white"/>
</svg>
