<svg width="25" height="20" viewBox="0 0 25 20" fill="none" xmlns="http://www.w3.org/2000/svg">
<path d="M3.75 5C3.75 3.67392 4.27678 2.40215 5.21447 1.46447C6.15215 0.526784 7.42392 0 8.75 0C10.0761 0 11.3479 0.526784 12.2855 1.46447C13.2232 2.40215 13.75 3.67392 13.75 5C13.75 6.32608 13.2232 7.59785 12.2855 8.53553C11.3479 9.47322 10.0761 10 8.75 10C7.42392 10 6.15215 9.47322 5.21447 8.53553C4.27678 7.59785 3.75 6.32608 3.75 5ZM0 18.8398C0 14.9922 3.11719 11.875 6.96484 11.875H10.5352C14.3828 11.875 17.5 14.9922 17.5 18.8398C17.5 19.4805 16.9805 20 16.3398 20H1.16016C0.519531 20 0 19.4805 0 18.8398ZM19.6875 12.1875V9.6875H17.1875C16.668 9.6875 16.25 9.26953 16.25 8.75C16.25 8.23047 16.668 7.8125 17.1875 7.8125H19.6875V5.3125C19.6875 4.79297 20.1055 4.375 20.625 4.375C21.1445 4.375 21.5625 4.79297 21.5625 5.3125V7.8125H24.0625C24.582 7.8125 25 8.23047 25 8.75C25 9.26953 24.582 9.6875 24.0625 9.6875H21.5625V12.1875C21.5625 12.707 21.1445 13.125 20.625 13.125C20.1055 13.125 19.6875 12.707 19.6875 12.1875Z" fill="white"/>
</svg>
