<svg width="13" height="15" viewBox="0 0 13 15" fill="none" xmlns="http://www.w3.org/2000/svg">
<path d="M6.125 7.5C5.19674 7.5 4.3065 7.13125 3.65013 6.47487C2.99375 5.8185 2.625 4.92826 2.625 4C2.625 3.07174 2.99375 2.1815 3.65013 1.52513C4.3065 0.868749 5.19674 0.5 6.125 0.5C7.05326 0.5 7.9435 0.868749 8.59987 1.52513C9.25625 2.1815 9.625 3.07174 9.625 4C9.625 4.92826 9.25625 5.8185 8.59987 6.47487C7.9435 7.13125 7.05326 7.5 6.125 7.5ZM5.71758 10.3219L5.20898 9.47422C5.03398 9.18164 5.24453 8.8125 5.58359 8.8125H6.125H6.66367C7.00273 8.8125 7.21328 9.18438 7.03828 9.47422L6.52969 10.3219L7.44297 13.7098L8.42734 9.69297C8.48203 9.47149 8.69531 9.32656 8.9168 9.38398C10.8336 9.86523 12.25 11.5988 12.25 13.6605C12.25 14.1254 11.8727 14.5 11.4105 14.5H7.80664C7.74922 14.5 7.69727 14.4891 7.64805 14.4699L7.65625 14.5H4.59375L4.60195 14.4699C4.55273 14.4891 4.49805 14.5 4.44336 14.5H0.839453C0.377344 14.5 0 14.1227 0 13.6605C0 11.5961 1.41914 9.8625 3.3332 9.38398C3.55469 9.3293 3.76797 9.47422 3.82266 9.69297L4.80703 13.7098L5.72031 10.3219H5.71758Z" fill="#8DC046"/>
</svg>
