<svg width="40" height="40" viewBox="0 0 40 40" fill="none" xmlns="http://www.w3.org/2000/svg">
<path d="M20 0C31.0457 0 40 8.95431 40 20C40 31.0457 31.0457 40 20 40C8.95431 40 0 31.0457 0 20C0 8.95431 8.95431 0 20 0Z" fill="#E60707" fill-opacity="0.2"/>
<path d="M20 0C31.0457 0 40 8.95431 40 20C40 31.0457 31.0457 40 20 40C8.95431 40 0 31.0457 0 20C0 8.95431 8.95431 0 20 0Z" stroke="#E5E7EB"/>
<path d="M14.5 12C15.163 12 15.7989 12.2634 16.2678 12.7322C16.7366 13.2011 17 13.837 17 14.5C17 15.163 16.7366 15.7989 16.2678 16.2678C15.7989 16.7366 15.163 17 14.5 17C13.837 17 13.2011 16.7366 12.7322 16.2678C12.2634 15.7989 12 15.163 12 14.5C12 13.837 12.2634 13.2011 12.7322 12.7322C13.2011 12.2634 13.837 12 14.5 12ZM26 12C26.663 12 27.2989 12.2634 27.7678 12.7322C28.2366 13.2011 28.5 13.837 28.5 14.5C28.5 15.163 28.2366 15.7989 27.7678 16.2678C27.2989 16.7366 26.663 17 26 17C25.337 17 24.7011 16.7366 24.2322 16.2678C23.7634 15.7989 23.5 15.163 23.5 14.5C23.5 13.837 23.7634 13.2011 24.2322 12.7322C24.7011 12.2634 25.337 12 26 12ZM10 21.3344C10 19.4938 11.4937 18 13.3344 18H14.6687C15.1656 18 15.6375 18.1094 16.0625 18.3031C16.0219 18.5281 16.0031 18.7625 16.0031 19C16.0031 20.1938 16.5281 21.2656 17.3562 22C17.35 22 17.3438 22 17.3344 22H10.6656C10.3 22 10 21.7 10 21.3344ZM22.6656 22C22.6594 22 22.6531 22 22.6438 22C23.475 21.2656 23.9969 20.1938 23.9969 19C23.9969 18.7625 23.975 18.5312 23.9375 18.3031C24.3625 18.1062 24.8344 18 25.3313 18H26.6656C28.5063 18 30 19.4938 30 21.3344C30 21.7031 29.7 22 29.3344 22H22.6656ZM17 19C17 18.2044 17.3161 17.4413 17.8787 16.8787C18.4413 16.3161 19.2044 16 20 16C20.7956 16 21.5587 16.3161 22.1213 16.8787C22.6839 17.4413 23 18.2044 23 19C23 19.7956 22.6839 20.5587 22.1213 21.1213C21.5587 21.6839 20.7956 22 20 22C19.2044 22 18.4413 21.6839 17.8787 21.1213C17.3161 20.5587 17 19.7956 17 19ZM14 27.1656C14 24.8656 15.8656 23 18.1656 23H21.8344C24.1344 23 26 24.8656 26 27.1656C26 27.625 25.6281 28 25.1656 28H14.8344C14.375 28 14 27.6281 14 27.1656Z" fill="#E60707"/>
</svg>
