<svg width="40" height="40" viewBox="0 0 40 40" fill="none" xmlns="http://www.w3.org/2000/svg">
<path d="M20 0C31.0457 0 40 8.95431 40 20C40 31.0457 31.0457 40 20 40C8.95431 40 0 31.0457 0 20C0 8.95431 8.95431 0 20 0Z" fill="#8DC046" fill-opacity="0.2"/>
<path d="M20 0C31.0457 0 40 8.95431 40 20C40 31.0457 31.0457 40 20 40C8.95431 40 0 31.0457 0 20C0 8.95431 8.95431 0 20 0Z" stroke="#E5E7EB"/>
<path d="M20 28C22.1217 28 24.1566 27.1571 25.6569 25.6569C27.1571 24.1566 28 22.1217 28 20C28 17.8783 27.1571 15.8434 25.6569 14.3431C24.1566 12.8429 22.1217 12 20 12C17.8783 12 15.8434 12.8429 14.3431 14.3431C12.8429 15.8434 12 17.8783 12 20C12 22.1217 12.8429 24.1566 14.3431 25.6569C15.8434 27.1571 17.8783 28 20 28ZM23.5312 18.5312L19.5312 22.5312C19.2375 22.825 18.7625 22.825 18.4719 22.5312L16.4719 20.5312C16.1781 20.2375 16.1781 19.7625 16.4719 19.4719C16.7656 19.1813 17.2406 19.1781 17.5312 19.4719L19 20.9406L22.4688 17.4688C22.7625 17.175 23.2375 17.175 23.5281 17.4688C23.8187 17.7625 23.8219 18.2375 23.5281 18.5281L23.5312 18.5312Z" fill="#8DC046"/>
</svg>
