<svg width="37" height="37" viewBox="0 0 37 37" fill="none" xmlns="http://www.w3.org/2000/svg">
<path d="M18.5 0C28.7173 0 37 8.28273 37 18.5C37 28.7173 28.7173 37 18.5 37C8.28273 37 0 28.7173 0 18.5C0 8.28273 8.28273 0 18.5 0Z" fill="#FB8840"/>
<path d="M18.5 0C28.7173 0 37 8.28273 37 18.5C37 28.7173 28.7173 37 18.5 37C8.28273 37 0 28.7173 0 18.5C0 8.28273 8.28273 0 18.5 0Z" stroke="#E5E7EB"/>
<path d="M28.9062 27.75H8.09375V9.25H28.9062V27.75Z" stroke="#E5E7EB"/>
<g clip-path="url(#clip0_4_1263)">
<path d="M14.3 12C10.8219 12 8 14.9115 8 18.5C8 22.0885 10.8219 25 14.3 25H22.7C26.1781 25 29 22.0885 29 18.5C29 14.9115 26.1781 12 22.7 12H14.3ZM24.275 15.5208C24.6231 15.5208 24.9569 15.6635 25.2031 15.9175C25.4492 16.1714 25.5875 16.5159 25.5875 16.875C25.5875 17.2341 25.4492 17.5786 25.2031 17.8325C24.9569 18.0865 24.6231 18.2292 24.275 18.2292C23.9269 18.2292 23.5931 18.0865 23.3469 17.8325C23.1008 17.5786 22.9625 17.2341 22.9625 16.875C22.9625 16.5159 23.1008 16.1714 23.3469 15.9175C23.5931 15.6635 23.9269 15.5208 24.275 15.5208ZM20.8625 20.125C20.8625 19.7659 21.0008 19.4214 21.2469 19.1675C21.4931 18.9135 21.8269 18.7708 22.175 18.7708C22.5231 18.7708 22.8569 18.9135 23.1031 19.1675C23.3492 19.4214 23.4875 19.7659 23.4875 20.125C23.4875 20.4841 23.3492 20.8286 23.1031 21.0825C22.8569 21.3365 22.5231 21.4792 22.175 21.4792C21.8269 21.4792 21.4931 21.3365 21.2469 21.0825C21.0008 20.8286 20.8625 20.4841 20.8625 20.125ZM13.5125 16.6042C13.5125 16.1539 13.8636 15.7917 14.3 15.7917C14.7364 15.7917 15.0875 16.1539 15.0875 16.6042V17.6875H16.1375C16.5739 17.6875 16.925 18.0497 16.925 18.5C16.925 18.9503 16.5739 19.3125 16.1375 19.3125H15.0875V20.3958C15.0875 20.8461 14.7364 21.2083 14.3 21.2083C13.8636 21.2083 13.5125 20.8461 13.5125 20.3958V19.3125H12.4625C12.0261 19.3125 11.675 18.9503 11.675 18.5C11.675 18.0497 12.0261 17.6875 12.4625 17.6875H13.5125V16.6042Z" fill="white"/>
</g>
<defs>
<clipPath id="clip0_4_1263">
<path d="M8.09375 9.25H28.9062V27.75H8.09375V9.25Z" fill="white"/>
</clipPath>
</defs>
</svg>
