<svg width="34" height="34" viewBox="0 0 34 34" fill="none" xmlns="http://www.w3.org/2000/svg">
<rect width="34" height="34" rx="17" fill="#3FB47C"/>
<path fill-rule="evenodd" clip-rule="evenodd" d="M21.7495 19.9561H22.935V21.7344H24.1304V21.7256H24.9978C25.8187 21.7256 26.4841 22.391 26.4841 23.2119C26.4841 24.0327 25.8187 24.6981 24.9978 24.6981H24.4667C24.281 24.6981 24.1304 24.5476 24.1304 24.3619V22.9199H22.935V24.6981H21.7495V22.9199H8.70143C8.04669 22.9199 7.51592 22.3891 7.51592 21.7344H21.7495V19.9561Z" fill="#F9F9F9"/>
<path fill-rule="evenodd" clip-rule="evenodd" d="M18.1931 14.8657C18.5534 15.1402 19.0033 15.3032 19.4912 15.3032C20.6756 15.3032 21.6356 14.3431 21.6356 13.1588V9.33683H19.9714V13.1588C19.9714 13.4239 19.7564 13.6389 19.4912 13.6389C19.2776 13.6389 19.0966 13.4994 19.0343 13.3065C19.0376 13.2577 19.0393 13.2084 19.0393 13.1588V9.33683H19.0111V9.3017H17.3469V13.1588C17.3469 13.2084 17.3485 13.2577 17.3519 13.3065C17.2895 13.4994 17.1085 13.6389 16.8949 13.6389C16.6297 13.6389 16.4147 13.4239 16.4147 13.1588V9.3017H14.7505V15.6627L14.7523 15.6902C14.7882 16.2313 14.9702 17.0332 15.429 17.726C15.9095 18.4517 16.7167 19.0776 17.9159 19.0776V17.4134C17.3869 17.4134 17.0563 17.1692 16.8166 16.8072C16.5618 16.4223 16.4408 15.9342 16.4147 15.6051V15.2492C16.5691 15.2845 16.7298 15.3032 16.8949 15.3032C17.3828 15.3032 17.8327 15.1402 18.1931 14.8657ZM9.47312 9.33683V15.6051C9.44701 15.9342 9.32608 16.4223 9.07121 16.8072C8.83156 17.1692 8.50095 17.4134 7.97198 17.4134C6.86669 17.4134 6.59966 17.0757 6.54344 16.9896L4.87921 16.9896C4.8792 18.0198 6.00577 19.0776 7.97198 19.0776C9.07121 19.0776 9.97832 18.4517 10.4588 17.726C10.6843 17.3856 10.8429 17.0188 10.9502 16.6696H13.5511V15.0053H11.1374V9.33683H9.47312ZM6.73522 15.6352V9.33683H8.39946V15.6352H6.73522ZM22.433 15.6352V9.33683H24.0972V15.6352H22.433ZM24.8946 9.33683V12.8614H26.5588V9.33683H24.8946ZM21.7318 17.4134H18.577V19.0776H21.7318V17.4134ZM12.1105 12.8614V9.33683H13.7748V12.8614H12.1105ZM27.4567 15.6051V9.33683H29.1209V15.6627L29.1191 15.6902C29.0832 16.2313 28.9011 17.0332 28.4424 17.726C27.9618 18.4517 27.1547 19.0776 25.9555 19.0776C23.9893 19.0776 22.8627 18.0198 22.8627 16.9896L24.527 16.9896C24.5826 17.0568 24.8502 17.4134 25.9555 17.4134C26.4845 17.4134 26.8151 17.1692 27.0547 16.8072C27.3096 16.4223 27.4305 15.9342 27.4567 15.6051Z" fill="#F9F9F9"/>
</svg>
