<svg width="23" height="22" viewBox="0 0 23 22" fill="none" xmlns="http://www.w3.org/2000/svg">
<path d="M3.64286 0C1.90937 0 0.5 1.40937 0.5 3.14286V18.8571C0.5 20.5906 1.90937 22 3.64286 22H19.3571C21.0906 22 22.5 20.5906 22.5 18.8571V6.93884C22.5 6.10402 22.171 5.30357 21.5817 4.71429L17.7857 0.918304C17.1964 0.329018 16.396 0 15.5612 0H3.64286ZM3.64286 4.71429C3.64286 3.84509 4.34509 3.14286 5.21429 3.14286H14.6429C15.5121 3.14286 16.2143 3.84509 16.2143 4.71429V7.85714C16.2143 8.72634 15.5121 9.42857 14.6429 9.42857H5.21429C4.34509 9.42857 3.64286 8.72634 3.64286 7.85714V4.71429ZM11.5 12.5714C12.3335 12.5714 13.1329 12.9026 13.7223 13.492C14.3117 14.0814 14.6429 14.8807 14.6429 15.7143C14.6429 16.5478 14.3117 17.3472 13.7223 17.9366C13.1329 18.526 12.3335 18.8571 11.5 18.8571C10.6665 18.8571 9.86706 18.526 9.27766 17.9366C8.68826 17.3472 8.35714 16.5478 8.35714 15.7143C8.35714 14.8807 8.68826 14.0814 9.27766 13.492C9.86706 12.9026 10.6665 12.5714 11.5 12.5714Z" fill="white"/>
</svg>
