<svg width="34" height="34" viewBox="0 0 34 34" fill="none" xmlns="http://www.w3.org/2000/svg">
<g clip-path="url(#clip0_4_296)">
<rect width="34" height="34" rx="17" fill="#F8D74C"/>
<path d="M0 25.5H34V34H0V25.5Z" fill="#D74B4B"/>
<path d="M0 0H34V8.5H0V0Z" fill="#D74B4B"/>
<path d="M8.63404 18.3692L7.66821 18.3096L7.45297 18.4125L7.27636 18.5642C7.32934 18.7202 7.64061 18.8062 7.78963 18.8297L8.90447 19.0193C8.93758 19.0012 9.1473 18.9489 9.29632 18.7267C9.45444 18.4911 9.25217 18.4505 9.09211 18.4125L8.63404 18.3692Z" fill="#D74B4B"/>
<path d="M18.2738 18.3692L19.2396 18.3096L19.4549 18.4125L19.6315 18.5642C19.5785 18.7202 19.2672 18.8062 19.1182 18.8297L18.0034 19.0193C17.9703 19.0012 17.7605 18.9489 17.6115 18.7267C17.4534 18.4911 17.6557 18.4505 17.8157 18.4125L18.2738 18.3692Z" fill="#D74B4B"/>
<path d="M7.76514 16.1394H8.90465V21.4301H7.76514V16.1394Z" fill="#F9F9F9"/>
<path d="M7.81287 14.7671C7.77156 14.4576 8.01703 14.183 8.33506 14.183C8.65297 14.183 8.8984 14.4574 8.85728 14.7668L8.78196 15.3336H7.88848L7.81287 14.7671Z" fill="#D74B4B"/>
<path d="M7.51256 15.3342H9.15719V16.1392H7.51256V15.3342Z" fill="#E77D42"/>
<path d="M7.51256 21.4301H9.15719V22.2351H7.51256V21.4301Z" fill="#E77D42"/>
<path d="M7.17874 22.2353H9.49102V23.375H7.17874V22.2353Z" fill="#485CC2"/>
<path d="M17.9578 16.1393H19.0974V21.43H17.9578V16.1393Z" fill="#F9F9F9"/>
<path d="M18.0056 14.767C17.9643 14.4575 18.2097 14.1829 18.5278 14.1829C18.8457 14.1829 19.0911 14.4573 19.05 14.7667L18.9747 15.3335H18.0812L18.0056 14.767Z" fill="#D74B4B"/>
<path d="M17.7053 15.3341H19.3499V16.1391H17.7053V15.3341Z" fill="#E77D42"/>
<path d="M17.7053 21.43H19.3499V22.235H17.7053V21.43Z" fill="#E77D42"/>
<path d="M17.3714 22.2352H19.6837V23.3749H17.3714V22.2352Z" fill="#485CC2"/>
<path d="M10.0625 15.3336H16.8444V21.1221C16.8444 22.271 15.8956 23.2024 14.7251 23.2024H12.1818C11.0113 23.2024 10.0625 22.271 10.0625 21.1221V15.3336Z" fill="#E6E6E6"/>
<path d="M10.0625 19.0164H13.4535V21.1301C13.4535 22.0492 12.6944 22.7944 11.758 22.7944C10.8216 22.7944 10.0625 22.0492 10.0625 21.1301V19.0164Z" fill="#D74B4B"/>
<mask id="mask0_4_296" style="mask-type:alpha" maskUnits="userSpaceOnUse" x="10" y="19" width="4" height="4">
<path d="M10.0625 19.0164H13.4535V21.1301C13.4535 22.0492 12.6944 22.7944 11.758 22.7944C10.8216 22.7944 10.0625 22.0492 10.0625 21.1301V19.0164Z" fill="#D74B4B"/>
</mask>
<g mask="url(#mask0_4_296)">
<path d="M10.0625 19.0159H10.4274V23.4338H10.0625V19.0159Z" fill="#F8D74C"/>
<path d="M10.8076 19.0159H11.1725V23.4338H10.8076V19.0159Z" fill="#F8D74C"/>
<path d="M11.5692 19.0159H11.9341V23.4338H11.5692V19.0159Z" fill="#F8D74C"/>
<path d="M12.3142 19.0159H12.6792V23.4338H12.3142V19.0159Z" fill="#F8D74C"/>
<path d="M13.0885 19.0159H13.4535V23.4338H13.0885V19.0159Z" fill="#F8D74C"/>
</g>
<path d="M13.4535 19.0171H16.8445V21.1308C16.8445 22.0499 16.0854 22.7951 15.149 22.7951C14.2126 22.7951 13.4535 22.0499 13.4535 21.1308V19.0171Z" fill="#D74B4B"/>
<path fill-rule="evenodd" clip-rule="evenodd" d="M13.7665 19.2539H16.5314V21.1945C16.5314 21.944 15.9125 22.5515 15.149 22.5515C14.3854 22.5515 13.7665 21.944 13.7665 21.1945V19.2539ZM14.0491 19.5313V21.1945C14.0491 21.7908 14.5415 22.2741 15.149 22.2741C15.7564 22.2741 16.2489 21.7908 16.2489 21.1945V19.5313H14.0491Z" fill="#F8D74C"/>
<path fill-rule="evenodd" clip-rule="evenodd" d="M16.4131 19.4905L14.1044 21.935L13.9007 21.7466L16.2095 19.3021L16.4131 19.4905Z" fill="#F8D74C"/>
<path fill-rule="evenodd" clip-rule="evenodd" d="M16.2952 21.8749L13.7916 19.5778L13.9846 19.3752L16.4395 21.5774L16.2952 21.8749Z" fill="#F8D74C"/>
<path fill-rule="evenodd" clip-rule="evenodd" d="M13.8492 20.4864L16.4266 20.4859L16.4266 20.7633L13.8493 20.7638L13.8492 20.4864Z" fill="#F8D74C"/>
<path fill-rule="evenodd" clip-rule="evenodd" d="M15.238 19.3566L15.2906 22.39L15.0081 22.3947L14.9554 19.3613L15.238 19.3566Z" fill="#F8D74C"/>
<path d="M15.7039 20.6251C15.7039 20.94 15.4438 21.1953 15.123 21.1953C14.8022 21.1953 14.5421 20.94 14.5421 20.6251C14.5421 20.3101 14.8022 20.0548 15.123 20.0548C15.4438 20.0548 15.7039 20.3101 15.7039 20.6251Z" fill="#3FB47C"/>
<path d="M10.0625 15.3336H13.4535V19.0177H10.0625V15.3336Z" fill="#D74B4B"/>
<path fill-rule="evenodd" clip-rule="evenodd" d="M11.987 15.7365V15.9629H11.8662V16.5119H12.1176V16.3469H11.9811V16.1205H12.4848V16.3469H12.3483V16.5119H12.579V17.0058H12.4637V17.9604H12.7304V18.4876H10.7654V17.9604H11.0379V17.0058H10.8912V16.5119H11.1532V16.3469H11.0167V16.1205H11.5204V16.3469H11.3839V16.5119H11.6355V15.9629H11.4832V15.7365H11.987Z" fill="#F8D74C"/>
<path d="M11.2056 17.3022C11.2056 17.2304 11.2649 17.1722 11.3381 17.1722C11.4112 17.1722 11.4705 17.2304 11.4705 17.3022V17.611H11.2056V17.3022Z" fill="#485CC2"/>
<path d="M12.0335 17.3022C12.0335 17.2304 12.0928 17.1722 12.1659 17.1722C12.2391 17.1722 12.2984 17.2304 12.2984 17.3022V17.611H12.0335V17.3022Z" fill="#485CC2"/>
<path d="M11.5478 18.2495C11.5478 18.1388 11.6392 18.0491 11.752 18.0491C11.8648 18.0491 11.9562 18.1388 11.9562 18.2495V18.4879H11.5478V18.2495Z" fill="#485CC2"/>
<path d="M13.4535 15.3336H16.8445V19.0177H13.4535V15.3336Z" fill="#E6E6E6"/>
<path d="M14.2742 15.8611L14.2466 15.9966L14.3515 16.0345L14.2742 15.8611Z" fill="#D74B4B"/>
<path d="M13.9043 16.0668L14.0082 16.1601L14.0955 16.0916L13.9043 16.0668Z" fill="#D74B4B"/>
<path d="M13.9402 16.4527L14.0631 16.3854L14.0244 16.2825L13.9402 16.4527Z" fill="#D74B4B"/>
<path d="M14.0041 16.9708L14.1349 17.0217L14.1917 16.9272L14.0041 16.9708Z" fill="#D74B4B"/>
<path d="M13.9841 17.2582L14.1237 17.2413L14.1274 17.1316L13.9841 17.2582Z" fill="#D74B4B"/>
<path d="M14.3235 17.4588L14.3359 17.3213L14.2275 17.2947L14.3235 17.4588Z" fill="#D74B4B"/>
<path d="M14.5444 17.7952L14.6613 17.8721L14.7372 17.7915L14.5444 17.7952Z" fill="#D74B4B"/>
<path d="M14.4354 18.1023L14.5743 18.0805L14.574 17.9708L14.4354 18.1023Z" fill="#D74B4B"/>
<path d="M14.7699 18.3028L14.7848 18.1655L14.6769 18.1371L14.7699 18.3028Z" fill="#D74B4B"/>
<path d="M15.4142 18.3592L15.5541 18.3436L15.5588 18.234L15.4142 18.3592Z" fill="#D74B4B"/>
<path d="M15.5915 18.6331L15.6545 18.5096L15.5635 18.4459L15.5915 18.6331Z" fill="#D74B4B"/>
<path d="M15.932 18.6463L15.8989 18.512L15.7875 18.521L15.932 18.6463Z" fill="#D74B4B"/>
<path d="M14.9917 16.0507L14.9586 15.9045H15.1849L15.218 15.7907H15.3394L15.5215 15.9045L15.6761 16.0507V16.2729L15.7589 16.392L15.6319 16.3216L15.7809 16.6629L15.6319 16.5491L15.6761 16.7767L15.5215 16.5925L15.5547 16.9338L15.4167 16.8525L15.7092 17.378L15.9299 17.4159L16.079 17.3401V17.1342L15.9851 16.8038V16.5221L16.0238 16.1645L16.1121 15.7907L16.1949 15.9695L16.4267 15.7907L16.2611 16.0778H16.4267L16.079 16.4625L16.1121 16.8038L16.2335 17.1938L16.1617 17.443L15.8416 17.573L15.7809 17.8277L15.9575 17.9089L16.0238 18.0444L15.8692 18.3369L15.9299 18.5211H15.7589L15.7092 18.4236L15.6761 18.5211L15.5547 18.4507L15.6761 18.3694H15.5547V18.2177L15.7092 18.2448V18.1094L15.6319 17.9577V18.1094L15.5547 17.9848V18.1581L15.367 17.9577L15.4167 17.7193H15.218L15.2621 18.0714L15.1849 18.1581L14.8427 18.1094L14.8041 18.1906L14.6495 18.1581L14.7323 18.0714L14.5723 18.1094V17.9577H14.6937L14.6219 17.8818L14.7323 17.7735L14.8041 17.9089H15.0193V17.7735L14.9586 17.8277V17.6489L14.8869 17.7735V17.4918L15.0414 17.443L15.367 17.4159L14.9917 17.2209L14.931 17.053H14.8427L14.7323 17.1667V17.053L14.5723 17.2642V17.1342L14.346 17.2209L14.3791 17.3022L14.3239 17.3401L14.2025 17.3022L14.2411 17.2209L14.1252 17.2642V17.1342H14.2025V17.0855H14.1749L14.1252 17.015L14.1749 16.9338L14.2687 17.015H14.4122L14.6495 16.8525L14.5116 16.7333L14.2687 16.6629L14.3239 16.5925L14.1749 16.5221H14.3239L14.1749 16.392L14.0535 16.4191L13.9928 16.2729H14.1252L13.9928 16.1645L14.0921 16.0507L14.2025 16.1374V16.0074H14.3791L14.2687 16.1645L14.6495 16.4625H14.9586L15.0414 16.392L14.9586 16.3216V16.2729H15.0414L15.1849 16.2241V16.1103L14.9917 16.0507Z" fill="#F995F5"/>
<path d="M15.3394 15.5253V15.7907L15.7037 16.0778L16.0017 16.0128H15.7589V15.9803L15.8472 15.8232L15.7037 15.9261L15.6374 15.8774L15.7037 15.7203L15.5602 15.8232L15.5105 15.7907L15.5602 15.6119L15.4498 15.7203H15.4112L15.3394 15.5253Z" fill="#F8D74C"/>
<path d="M15.3505 15.8936H15.2401L15.2953 15.9749H15.4167L15.3505 15.8936Z" fill="#333333"/>
<path d="M14.7213 15.9641L14.5833 16.002L14.8703 16.2187H15.1904V16.1591L14.9641 16.132L14.8317 16.002L14.7213 15.9641Z" fill="#D74B4B"/>
<path d="M14.5739 19.017C14.5739 19.7099 14.0723 20.2717 13.4535 20.2717C12.8346 20.2717 12.333 19.7099 12.333 19.017C12.333 18.324 12.8346 17.7623 13.4535 17.7623C14.0723 17.7623 14.5739 18.324 14.5739 19.017Z" fill="#D74B4B"/>
<path d="M14.1766 19.0169C14.1766 19.4641 13.8528 19.8266 13.4535 19.8266C13.0541 19.8266 12.7304 19.4641 12.7304 19.0169C12.7304 18.5697 13.0541 18.2072 13.4535 18.2072C13.8528 18.2072 14.1766 18.5697 14.1766 19.0169Z" fill="#485CC2"/>
<path fill-rule="evenodd" clip-rule="evenodd" d="M13.4093 19.0029C13.3725 18.9325 13.3298 18.7613 13.4535 18.6399C13.5771 18.7613 13.5344 18.9325 13.4976 19.0029L13.5498 18.948C13.5658 18.9312 13.5882 18.9216 13.6117 18.9216C13.6584 18.9216 13.6963 18.9588 13.6963 19.0047V19.095H13.6922C13.6177 19.095 13.5467 19.1266 13.4976 19.1817H13.597V19.2792H13.5252L13.5749 19.3604L13.4535 19.3929L13.332 19.3604L13.3817 19.2792H13.31V19.1817H13.4093C13.3602 19.1266 13.2893 19.095 13.2147 19.095H13.2106V19.0047C13.2106 18.9588 13.2485 18.9216 13.2953 18.9216C13.3187 18.9216 13.3411 18.9312 13.3571 18.948L13.4093 19.0029Z" fill="#F8D74C"/>
<path d="M7.13362 17.8037C7.05255 17.9155 7.0686 18.149 7.13362 18.254L7.27129 18.5691C7.40895 18.4677 7.95969 18.051 8.62514 17.9947C9.15751 17.9497 9.80308 18.1036 10.0593 18.1862V17.5104C10.0593 17.5104 10.1465 17.4612 9.21029 17.3531C8.04 17.2179 7.22643 17.6758 7.13362 17.8037Z" fill="#962122"/>
<path d="M7.13362 19.7956C6.99484 20.0051 7.34013 20.5249 7.51223 20.7652C7.70498 20.4679 7.59254 20.2359 7.51223 20.157C8.00941 19.9356 9.04507 19.4656 9.21029 19.3574C9.3755 19.2493 9.41681 19.1022 9.41681 19.0421L9.35944 18.5691C9.26765 18.8754 8.65946 19.1029 8.3578 19.2086L8.34747 19.2122C7.9222 19.3611 7.27017 19.5895 7.13362 19.7956Z" fill="#962122"/>
<path d="M7.13362 17.8037C7.05255 17.9155 7.0686 18.149 7.13362 18.254L7.27129 18.5691C7.40895 18.4677 7.95969 18.051 8.62514 17.9947C9.15751 17.9497 9.80308 18.1036 10.0593 18.1862V17.5104C10.0593 17.5104 10.1465 17.4612 9.21029 17.3531C8.04 17.2179 7.22643 17.6758 7.13362 17.8037Z" fill="#962122"/>
<path d="M7.13362 19.7956C6.99484 20.0051 7.34013 20.5249 7.51223 20.7652C7.70498 20.4679 7.59254 20.2359 7.51223 20.157C8.00941 19.9356 9.04507 19.4656 9.21029 19.3574C9.3755 19.2493 9.41681 19.1022 9.41681 19.0421L9.35944 18.5691C9.26765 18.8754 8.65946 19.1029 8.3578 19.2086L8.34747 19.2122C7.9222 19.3611 7.27017 19.5895 7.13362 19.7956Z" fill="#962122"/>
<path d="M19.7737 17.8037C19.8548 17.9155 19.8387 18.149 19.7737 18.254L19.6361 18.5691C19.4984 18.4677 18.9477 18.051 18.2822 17.9947C17.7498 17.9497 17.1043 18.1036 16.848 18.1862V17.5104C16.848 17.5104 16.7608 17.4612 17.6971 17.3531C18.8673 17.2179 19.6809 17.6758 19.7737 17.8037Z" fill="#962122"/>
<path d="M19.7737 19.7956C19.9125 20.0051 19.5672 20.5249 19.3951 20.7652C19.2024 20.4679 19.3148 20.2359 19.3951 20.157C18.8979 19.9356 17.8623 19.4656 17.6971 19.3574C17.5318 19.2493 17.4905 19.1022 17.4905 19.0421L17.5479 18.5691C17.6397 18.8754 18.2479 19.1029 18.5496 19.2086L18.5599 19.2122C18.9851 19.3611 19.6372 19.5895 19.7737 19.7956Z" fill="#962122"/>
<path d="M13.1004 12.8299L13.4171 13.1293L13.7949 12.8299L13.673 11.6937H13.1978L13.1004 12.8299Z" fill="#E77D42"/>
<path d="M11.5174 12.2568C11.3987 12.5028 11.6541 12.9503 11.7966 13.1432L11.9948 12.8923C11.8272 12.5714 11.6463 12.1313 12.1659 11.9443C12.624 11.7795 13.0614 11.9574 13.1823 12.0543V11.9089C13.1823 11.9089 12.8361 11.7123 12.2015 11.7795C11.9707 11.8039 11.6361 12.0108 11.5174 12.2568Z" fill="#E77D42"/>
<path d="M15.2977 12.2568C15.4164 12.5028 15.1611 12.9503 15.0186 13.1432L14.8203 12.8923C14.9879 12.5714 15.1689 12.1313 14.6493 11.9443C14.1912 11.7795 13.7538 11.9574 13.6329 12.0543V11.9089C13.6329 11.9089 13.9791 11.7123 14.6137 11.7795C14.8444 11.8039 15.179 12.0108 15.2977 12.2568Z" fill="#E77D42"/>
<path d="M9.92167 12.9031C9.88936 13.2331 10.0913 13.4686 10.1963 13.545L10.3821 13.2598L10.1963 13.1012C10.1137 12.9921 10.0351 12.7045 10.3821 12.4272C10.7292 12.1499 11.3022 12.1795 11.5454 12.229L11.6342 12.1419C11.1237 12.028 10.5868 12.1894 10.3821 12.2844C10.2421 12.3531 9.95399 12.5731 9.92167 12.9031Z" fill="#E77D42"/>
<path d="M17.0686 12.9728C17.1037 13.3315 16.8841 13.5875 16.77 13.6707L16.568 13.3606L16.77 13.1882C16.8599 13.0695 16.9453 12.7569 16.568 12.4555C16.1907 12.154 15.5678 12.1862 15.3035 12.24L15.2069 12.1454C15.7619 12.0215 16.3456 12.197 16.568 12.3002C16.7202 12.3749 17.0334 12.614 17.0686 12.9728Z" fill="#E77D42"/>
<path d="M11.3458 14.8745L10.1943 13.5452L11.2483 14.0255L11.7844 13.0687L12.6739 13.7745L13.4659 12.8895L14.197 13.7745L15.0377 13.0687L15.586 14.0255L16.9341 13.5057L15.586 14.8745V15.0541C15.2936 15.1378 14.4602 15.3053 13.4659 15.3053C12.4716 15.3053 11.5732 15.1378 11.2483 15.0541L11.3458 14.8745Z" fill="#E77D42"/>
<path fill-rule="evenodd" clip-rule="evenodd" d="M13.5236 10.625H13.3592V10.7875H13.1868V10.9489H13.3592V11.5009H13.5236V10.9489H13.6837V10.7875L13.5236 10.7875V10.625Z" fill="#E77D42"/>
<path d="M13.7444 11.4247C13.7444 11.5956 13.6033 11.7341 13.4292 11.7341C13.2551 11.7341 13.1139 11.5956 13.1139 11.4247C13.1139 11.2538 13.2551 11.1153 13.4292 11.1153C13.6033 11.1153 13.7444 11.2538 13.7444 11.4247Z" fill="#485CC2"/>
<path d="M13.7444 11.378V11.5394H13.1139V11.378H13.7444Z" fill="#E77D42"/>
<path d="M15.3394 15.0134C15.3394 15.1306 14.4906 15.2256 13.4436 15.2256C12.3966 15.2256 11.5478 15.1306 11.5478 15.0134C11.5478 14.8962 12.3966 14.8011 13.4436 14.8011C14.4906 14.8011 15.3394 14.8962 15.3394 15.0134Z" fill="#E6E6E6"/>
<path fill-rule="evenodd" clip-rule="evenodd" d="M13.942 15.2182C13.7832 15.2231 13.6161 15.2256 13.4436 15.2256C13.2711 15.2256 13.104 15.2231 12.9452 15.2182C12.14 15.1937 11.5478 15.1113 11.5478 15.0134C11.5478 14.9155 12.14 14.8331 12.9452 14.8086C13.104 14.8037 13.2711 14.8011 13.4436 14.8011C13.6161 14.8011 13.7832 14.8037 13.942 14.8086C14.7472 14.8331 15.3394 14.9155 15.3394 15.0134C15.3394 15.1113 14.7472 15.1937 13.942 15.2182Z" fill="#D74B4B"/>
<path d="M11.8399 14.6023C11.8399 14.6522 11.7987 14.6926 11.7479 14.6926C11.6971 14.6926 11.6559 14.6522 11.6559 14.6023C11.6559 14.5524 11.6971 14.512 11.7479 14.512C11.7987 14.512 11.8399 14.5524 11.8399 14.6023Z" fill="#F9F9F9"/>
<path d="M10.0625 13.5452C10.0625 13.5951 10.0213 13.6356 9.97051 13.6356C9.91969 13.6356 9.87849 13.5951 9.87849 13.5452C9.87849 13.4954 9.91969 13.4549 9.97051 13.4549C10.0213 13.4549 10.0625 13.4954 10.0625 13.5452Z" fill="#F9F9F9"/>
<path d="M9.91825 13.3258C9.91825 13.3757 9.87705 13.4161 9.82624 13.4161C9.77542 13.4161 9.73422 13.3757 9.73422 13.3258C9.73422 13.2759 9.77542 13.2355 9.82624 13.2355C9.87705 13.2355 9.91825 13.2759 9.91825 13.3258Z" fill="#F9F9F9"/>
<path d="M9.82624 13.0827C9.82624 13.1326 9.78504 13.173 9.73422 13.173C9.68341 13.173 9.64221 13.1326 9.64221 13.0827C9.64221 13.0328 9.68341 12.9924 9.73422 12.9924C9.78504 12.9924 9.82624 13.0328 9.82624 13.0827Z" fill="#F9F9F9"/>
<path d="M9.82624 12.8396C9.82624 12.8895 9.78504 12.9299 9.73422 12.9299C9.68341 12.9299 9.64221 12.8895 9.64221 12.8396C9.64221 12.7897 9.68341 12.7493 9.73422 12.7493C9.78504 12.7493 9.82624 12.7897 9.82624 12.8396Z" fill="#F9F9F9"/>
<path d="M9.91825 12.6202C9.91825 12.6701 9.87705 12.7105 9.82624 12.7105C9.77542 12.7105 9.73422 12.6701 9.73422 12.6202C9.73422 12.5703 9.77542 12.5299 9.82624 12.5299C9.87705 12.5299 9.91825 12.5703 9.91825 12.6202Z" fill="#F9F9F9"/>
<path d="M10.1023 12.4394C10.1023 12.4893 10.0611 12.5297 10.0103 12.5297C9.95944 12.5297 9.91825 12.4893 9.91825 12.4394C9.91825 12.3895 9.95944 12.3491 10.0103 12.3491C10.0611 12.3491 10.1023 12.3895 10.1023 12.4394Z" fill="#F9F9F9"/>
<path d="M10.2863 12.2586C10.2863 12.3085 10.2451 12.3489 10.1943 12.3489C10.1435 12.3489 10.1023 12.3085 10.1023 12.2586C10.1023 12.2087 10.1435 12.1683 10.1943 12.1683C10.2451 12.1683 10.2863 12.2087 10.2863 12.2586Z" fill="#F9F9F9"/>
<path d="M10.5015 12.134C10.5015 12.1839 10.4603 12.2243 10.4095 12.2243C10.3587 12.2243 10.3175 12.1839 10.3175 12.134C10.3175 12.0841 10.3587 12.0437 10.4095 12.0437C10.4603 12.0437 10.5015 12.0841 10.5015 12.134Z" fill="#F9F9F9"/>
<path d="M10.7223 12.0439C10.7223 12.0938 10.6811 12.1343 10.6303 12.1343C10.5795 12.1343 10.5383 12.0938 10.5383 12.0439C10.5383 11.9941 10.5795 11.9536 10.6303 11.9536C10.6811 11.9536 10.7223 11.9941 10.7223 12.0439Z" fill="#F9F9F9"/>
<path d="M10.9603 12.0121C10.9603 12.062 10.9191 12.1024 10.8683 12.1024C10.8174 12.1024 10.7762 12.062 10.7762 12.0121C10.7762 11.9622 10.8174 11.9218 10.8683 11.9218C10.9191 11.9218 10.9603 11.9622 10.9603 12.0121Z" fill="#F9F9F9"/>
<path d="M11.1921 11.9539C11.1921 12.0038 11.1509 12.0442 11.1001 12.0442C11.0492 12.0442 11.008 12.0038 11.008 11.9539C11.008 11.904 11.0492 11.8636 11.1001 11.8636C11.1509 11.8636 11.1921 11.904 11.1921 11.9539Z" fill="#F9F9F9"/>
<path d="M11.4404 11.9539C11.4404 12.0038 11.3992 12.0442 11.3484 12.0442C11.2976 12.0442 11.2564 12.0038 11.2564 11.9539C11.2564 11.904 11.2976 11.8636 11.3484 11.8636C11.3992 11.8636 11.4404 11.904 11.4404 11.9539Z" fill="#F9F9F9"/>
<path d="M11.6612 11.9539C11.6612 12.0038 11.62 12.0442 11.5692 12.0442C11.5183 12.0442 11.4772 12.0038 11.4772 11.9539C11.4772 11.904 11.5183 11.8636 11.5692 11.8636C11.62 11.8636 11.6612 11.904 11.6612 11.9539Z" fill="#F9F9F9"/>
<path d="M11.4404 12.3487C11.4404 12.3985 11.3992 12.439 11.3484 12.439C11.2976 12.439 11.2564 12.3985 11.2564 12.3487C11.2564 12.2988 11.2976 12.2583 11.3484 12.2583C11.3992 12.2583 11.4404 12.2988 11.4404 12.3487Z" fill="#F9F9F9"/>
<path d="M11.4869 12.6202C11.4869 12.6701 11.4457 12.7105 11.3949 12.7105C11.3441 12.7105 11.3029 12.6701 11.3029 12.6202C11.3029 12.5703 11.3441 12.5299 11.3949 12.5299C11.4457 12.5299 11.4869 12.5703 11.4869 12.6202Z" fill="#F9F9F9"/>
<path d="M11.5478 12.824C11.5478 12.8739 11.5066 12.9144 11.4558 12.9144C11.405 12.9144 11.3638 12.8739 11.3638 12.824C11.3638 12.7742 11.405 12.7337 11.4558 12.7337C11.5066 12.7337 11.5478 12.7742 11.5478 12.824Z" fill="#F9F9F9"/>
<path d="M11.6342 13.0204C11.6342 13.0703 11.593 13.1107 11.5422 13.1107C11.4914 13.1107 11.4502 13.0703 11.4502 13.0204C11.4502 12.9705 11.4914 12.9301 11.5422 12.9301C11.593 12.9301 11.6342 12.9705 11.6342 13.0204Z" fill="#F9F9F9"/>
<path d="M11.8452 11.8245C11.8452 11.8744 11.804 11.9149 11.7532 11.9149C11.7024 11.9149 11.6612 11.8744 11.6612 11.8245C11.6612 11.7747 11.7024 11.7342 11.7532 11.7342C11.804 11.7342 11.8452 11.7747 11.8452 11.8245Z" fill="#F9F9F9"/>
<path d="M12.056 11.6938C12.056 11.7437 12.0148 11.7842 11.9639 11.7842C11.9131 11.7842 11.8719 11.7437 11.8719 11.6938C11.8719 11.644 11.9131 11.6035 11.9639 11.6035C12.0148 11.6035 12.056 11.644 12.056 11.6938Z" fill="#F9F9F9"/>
<path d="M12.3054 11.6437C12.3054 11.6936 12.2642 11.734 12.2133 11.734C12.1625 11.734 12.1213 11.6936 12.1213 11.6437C12.1213 11.5938 12.1625 11.5534 12.2133 11.5534C12.2642 11.5534 12.3054 11.5938 12.3054 11.6437Z" fill="#F9F9F9"/>
<path d="M12.5544 11.6295C12.5544 11.6794 12.5132 11.7198 12.4623 11.7198C12.4115 11.7198 12.3703 11.6794 12.3703 11.6295C12.3703 11.5796 12.4115 11.5392 12.4623 11.5392C12.5132 11.5392 12.5544 11.5796 12.5544 11.6295Z" fill="#F9F9F9"/>
<path d="M12.8034 11.6437C12.8034 11.6936 12.7622 11.734 12.7113 11.734C12.6605 11.734 12.6193 11.6936 12.6193 11.6437C12.6193 11.5938 12.6605 11.5534 12.7113 11.5534C12.7622 11.5534 12.8034 11.5938 12.8034 11.6437Z" fill="#F9F9F9"/>
<path d="M13.0412 11.6938C13.0412 11.7437 13 11.7842 12.9492 11.7842C12.8984 11.7842 12.8572 11.7437 12.8572 11.6938C12.8572 11.644 12.8984 11.6035 12.9492 11.6035C13 11.6035 13.0412 11.644 13.0412 11.6938Z" fill="#F9F9F9"/>
<path d="M17.0261 13.4531C17.0261 13.503 17.0673 13.5435 17.1181 13.5435C17.1689 13.5435 17.2101 13.503 17.2101 13.4531C17.2101 13.4033 17.1689 13.3628 17.1181 13.3628C17.0673 13.3628 17.0261 13.4033 17.0261 13.4531Z" fill="#F9F9F9"/>
<path d="M17.1181 13.1437C17.1181 13.1936 17.1593 13.234 17.2101 13.234C17.2609 13.234 17.3021 13.1936 17.3021 13.1437C17.3021 13.0938 17.2609 13.0534 17.2101 13.0534C17.1593 13.0534 17.1181 13.0938 17.1181 13.1437Z" fill="#F9F9F9"/>
<path d="M17.0982 12.8342C17.0982 12.8841 17.1394 12.9245 17.1902 12.9245C17.2411 12.9245 17.2823 12.8841 17.2823 12.8342C17.2823 12.7843 17.2411 12.7439 17.1902 12.7439C17.1394 12.7439 17.0982 12.7843 17.0982 12.8342Z" fill="#F9F9F9"/>
<path d="M16.9803 12.5769C16.9803 12.6268 17.0215 12.6672 17.0724 12.6672C17.1232 12.6672 17.1644 12.6268 17.1644 12.5769C17.1644 12.527 17.1232 12.4866 17.0724 12.4866C17.0215 12.4866 16.9803 12.527 16.9803 12.5769Z" fill="#F9F9F9"/>
<path d="M16.8421 12.3642C16.8421 12.4141 16.8833 12.4546 16.9341 12.4546C16.9849 12.4546 17.0261 12.4141 17.0261 12.3642C17.0261 12.3144 16.9849 12.2739 16.9341 12.2739C16.8833 12.2739 16.8421 12.3144 16.8421 12.3642Z" fill="#F9F9F9"/>
<path d="M16.658 12.1929C16.658 12.2428 16.6992 12.2832 16.7501 12.2832C16.8009 12.2832 16.8421 12.2428 16.8421 12.1929C16.8421 12.143 16.8009 12.1026 16.7501 12.1026C16.6992 12.1026 16.658 12.143 16.658 12.1929Z" fill="#F9F9F9"/>
<path d="M16.4114 12.0954C16.4114 12.1453 16.4526 12.1857 16.5034 12.1857C16.5542 12.1857 16.5954 12.1453 16.5954 12.0954C16.5954 12.0455 16.5542 12.0051 16.5034 12.0051C16.4526 12.0051 16.4114 12.0455 16.4114 12.0954Z" fill="#F9F9F9"/>
<path d="M16.1831 12.0121C16.1831 12.062 16.2243 12.1024 16.2751 12.1024C16.3259 12.1024 16.3671 12.062 16.3671 12.0121C16.3671 11.9622 16.3259 11.9218 16.2751 11.9218C16.2243 11.9218 16.1831 11.9622 16.1831 12.0121Z" fill="#F9F9F9"/>
<path d="M15.9552 11.9539C15.9552 12.0038 15.9964 12.0442 16.0472 12.0442C16.0981 12.0442 16.1393 12.0038 16.1393 11.9539C16.1393 11.904 16.0981 11.8636 16.0472 11.8636C15.9964 11.8636 15.9552 11.904 15.9552 11.9539Z" fill="#F9F9F9"/>
<path d="M15.7274 11.9539C15.7274 12.0038 15.7686 12.0442 15.8194 12.0442C15.8702 12.0442 15.9114 12.0038 15.9114 11.9539C15.9114 11.904 15.8702 11.8636 15.8194 11.8636C15.7686 11.8636 15.7274 11.904 15.7274 11.9539Z" fill="#F9F9F9"/>
<path d="M15.484 11.9539C15.484 12.0038 15.5252 12.0442 15.576 12.0442C15.6268 12.0442 15.668 12.0038 15.668 11.9539C15.668 11.904 15.6268 11.8636 15.576 11.8636C15.5252 11.8636 15.484 11.904 15.484 11.9539Z" fill="#F9F9F9"/>
<path d="M15.1712 11.9539C15.1712 12.0038 15.2124 12.0442 15.2632 12.0442C15.3141 12.0442 15.3553 12.0038 15.3553 11.9539C15.3553 11.904 15.3141 11.8636 15.2632 11.8636C15.2124 11.8636 15.1712 11.904 15.1712 11.9539Z" fill="#F9F9F9"/>
<path d="M15.392 12.3487C15.392 12.3985 15.4332 12.439 15.484 12.439C15.5348 12.439 15.576 12.3985 15.576 12.3487C15.576 12.2988 15.5348 12.2583 15.484 12.2583C15.4332 12.2583 15.392 12.2988 15.392 12.3487Z" fill="#F9F9F9"/>
<path d="M15.3455 12.6202C15.3455 12.6701 15.3867 12.7105 15.4375 12.7105C15.4883 12.7105 15.5295 12.6701 15.5295 12.6202C15.5295 12.5703 15.4883 12.5299 15.4375 12.5299C15.3867 12.5299 15.3455 12.5703 15.3455 12.6202Z" fill="#F9F9F9"/>
<path d="M15.1712 13.1112C15.1712 13.161 15.2124 13.2015 15.2632 13.2015C15.3141 13.2015 15.3553 13.161 15.3553 13.1112C15.3553 13.0613 15.3141 13.0208 15.2632 13.0208C15.2124 13.0208 15.1712 13.0613 15.1712 13.1112Z" fill="#F9F9F9"/>
<path d="M15.3 12.8396C15.3 12.8895 15.3412 12.9299 15.392 12.9299C15.4428 12.9299 15.484 12.8895 15.484 12.8396C15.484 12.7897 15.4428 12.7493 15.392 12.7493C15.3412 12.7493 15.3 12.7897 15.3 12.8396Z" fill="#F9F9F9"/>
<path d="M13.3371 12.6432C13.3371 12.6931 13.3783 12.7336 13.4292 12.7336C13.48 12.7336 13.5212 12.6931 13.5212 12.6432C13.5212 12.5934 13.48 12.5529 13.4292 12.5529C13.3783 12.5529 13.3371 12.5934 13.3371 12.6432Z" fill="#F9F9F9"/>
<path d="M13.3432 12.3493C13.3432 12.3992 13.3844 12.4397 13.4352 12.4397C13.4861 12.4397 13.5273 12.3992 13.5273 12.3493C13.5273 12.2995 13.4861 12.259 13.4352 12.259C13.3844 12.259 13.3432 12.2995 13.3432 12.3493Z" fill="#F9F9F9"/>
<path d="M13.3359 12.0446C13.3359 12.0945 13.3771 12.1349 13.4279 12.1349C13.4787 12.1349 13.5199 12.0945 13.5199 12.0446C13.5199 11.9947 13.4787 11.9543 13.4279 11.9543C13.3771 11.9543 13.3359 11.9947 13.3359 12.0446Z" fill="#F9F9F9"/>
<path d="M14.9872 11.8245C14.9872 11.8744 15.0284 11.9149 15.0792 11.9149C15.13 11.9149 15.1712 11.8744 15.1712 11.8245C15.1712 11.7747 15.13 11.7342 15.0792 11.7342C15.0284 11.7342 14.9872 11.7747 14.9872 11.8245Z" fill="#F9F9F9"/>
<path d="M14.7764 11.6938C14.7764 11.7437 14.8176 11.7842 14.8685 11.7842C14.9193 11.7842 14.9605 11.7437 14.9605 11.6938C14.9605 11.644 14.9193 11.6035 14.8685 11.6035C14.8176 11.6035 14.7764 11.644 14.7764 11.6938Z" fill="#F9F9F9"/>
<path d="M14.5271 11.6437C14.5271 11.6936 14.5683 11.734 14.6191 11.734C14.6699 11.734 14.7111 11.6936 14.7111 11.6437C14.7111 11.5938 14.6699 11.5534 14.6191 11.5534C14.5683 11.5534 14.5271 11.5938 14.5271 11.6437Z" fill="#F9F9F9"/>
<path d="M14.2781 11.6295C14.2781 11.6794 14.3193 11.7198 14.3701 11.7198C14.4209 11.7198 14.4621 11.6794 14.4621 11.6295C14.4621 11.5796 14.4209 11.5392 14.3701 11.5392C14.3193 11.5392 14.2781 11.5796 14.2781 11.6295Z" fill="#F9F9F9"/>
<path d="M14.0291 11.6437C14.0291 11.6936 14.0702 11.734 14.1211 11.734C14.1719 11.734 14.2131 11.6936 14.2131 11.6437C14.2131 11.5938 14.1719 11.5534 14.1211 11.5534C14.0702 11.5534 14.0291 11.5938 14.0291 11.6437Z" fill="#F9F9F9"/>
<path d="M13.7912 11.6938C13.7912 11.7437 13.8324 11.7842 13.8832 11.7842C13.934 11.7842 13.9752 11.7437 13.9752 11.6938C13.9752 11.644 13.934 11.6035 13.8832 11.6035C13.8324 11.6035 13.7912 11.644 13.7912 11.6938Z" fill="#F9F9F9"/>
<path d="M15.241 14.6023C15.241 14.6522 15.1998 14.6926 15.149 14.6926C15.0982 14.6926 15.057 14.6522 15.057 14.6023C15.057 14.5524 15.0982 14.512 15.149 14.512C15.1998 14.512 15.241 14.5524 15.241 14.6023Z" fill="#F9F9F9"/>
<path d="M12.9492 14.4831C12.9492 14.533 12.908 14.5734 12.8572 14.5734C12.8064 14.5734 12.7652 14.533 12.7652 14.4831C12.7652 14.4332 12.8064 14.3928 12.8572 14.3928C12.908 14.3928 12.9492 14.4332 12.9492 14.4831Z" fill="#F9F9F9"/>
<path d="M14.0954 14.4831C14.0954 14.533 14.0542 14.5734 14.0034 14.5734C13.9526 14.5734 13.9114 14.533 13.9114 14.4831C13.9114 14.4332 13.9526 14.3928 14.0034 14.3928C14.0542 14.3928 14.0954 14.4332 14.0954 14.4831Z" fill="#F9F9F9"/>
<path d="M13.1004 14.4832C13.1004 14.4333 13.1416 14.3928 13.1925 14.3928H13.6633C13.7142 14.3928 13.7554 14.4333 13.7554 14.4832C13.7554 14.5331 13.7142 14.5736 13.6633 14.5736H13.1925C13.1416 14.5736 13.1004 14.5331 13.1004 14.4832Z" fill="#D74B4B"/>
<path d="M12.0625 14.5466C12.0589 14.4968 12.0971 14.4536 12.1478 14.45L12.4497 14.4288C12.5004 14.4252 12.5445 14.4627 12.5482 14.5125C12.5518 14.5623 12.5136 14.6056 12.4629 14.6091L12.161 14.6303C12.1102 14.6339 12.0662 14.5964 12.0625 14.5466Z" fill="#3FB47C"/>
<path d="M14.8261 14.5466C14.8297 14.4968 14.7915 14.4536 14.7408 14.45L14.4389 14.4288C14.3882 14.4252 14.3441 14.4627 14.3405 14.5125C14.3368 14.5623 14.375 14.6056 14.4258 14.6091L14.7276 14.6303C14.7784 14.6339 14.8225 14.5964 14.8261 14.5466Z" fill="#3FB47C"/>
</g>
<defs>
<clipPath id="clip0_4_296">
<rect width="34" height="34" rx="17" fill="white"/>
</clipPath>
</defs>
</svg>
