<svg width="193" height="184" viewBox="0 0 193 184" fill="none" xmlns="http://www.w3.org/2000/svg">
<path d="M31.0043 21.0746V47.5223H38.0078V24.7935C38.0078 24.7935 70.7113 6.19726 108.13 14.0487C108.13 14.0487 111.091 17.7677 108.13 18.1812C108.13 18.1812 84.1551 9.50267 42.1281 26.4462L41.7172 47.5223C41.7172 47.5223 115.882 27.1205 129.89 12.1143C129.89 12.1143 78.7994 -6.20026 31.0043 21.0746Z" fill="#2254B5"/>
<path d="M115.058 52.4804C115.058 52.4804 129.953 48.318 142.638 42.819V52.4804H115.058Z" fill="#2656B7"/>
<path d="M152.965 37.6091V52.4864H146.647V40.9939C148.81 39.975 150.918 38.8452 152.965 37.6091Z" fill="#2656B7"/>
<path d="M134.115 139.37C124.36 155.072 94.2495 169.536 94.2495 169.536C94.2495 169.536 64.1395 155.072 54.3887 139.37H134.115Z" fill="#2254B5"/>
<path d="M149.806 139.37C149.806 139.37 130.728 167.056 94.2495 184C57.7784 167.056 38.6935 139.37 38.6935 139.37H48.4473C48.4473 139.37 66.2594 164.165 94.2495 174.084C122.24 164.165 140.052 139.37 140.052 139.37H149.806Z" fill="#2254B5"/>
<path d="M170.955 0L160.998 35.7466L157.711 24.7546C157.711 24.7546 127.223 45.8696 89.7379 50.4157C90.4086 50.2149 133.471 37.3274 152.144 18.7416C151.323 19.2256 97.4271 50.9671 53.5446 49.4582C53.5446 49.4582 112.879 42.0188 148.035 7.85746L137.599 2.2101L170.955 0Z" fill="#43B150"/>
<path d="M98.0904 69.4135C99.417 69.5184 100.869 69.4705 102.317 69.5304C103.43 69.5754 104.259 70.1418 104.767 71.1606C105.364 72.3399 104.198 73.3048 103.313 73.1939C100.851 72.8838 98.3832 72.6695 95.9078 72.4657C94.7843 72.3728 93.6594 72.3019 92.533 72.253C88.7474 72.0791 84.9603 71.9713 81.1717 72.0657C78.6126 72.1301 76.0491 72.1795 73.4959 72.4088C73.1822 72.4373 72.8147 72.5062 72.6892 72.0807C72.5981 71.769 72.8939 71.4229 73.3675 71.3464C74.6567 71.1397 75.9475 70.9374 77.2427 70.7845C79.5628 70.5118 81.8843 70.2496 84.2089 70.0354C85.8447 69.8855 87.488 69.8286 89.1269 69.7057C92.0699 69.4825 95.0234 69.5589 98.0904 69.4135Z" fill="#8CBF45"/>
<path d="M97.9649 79.3223C99.6396 79.3223 101.316 79.3118 102.99 79.3223C103.705 79.3223 104.289 79.6219 104.568 80.3187C104.847 81.0154 104.568 81.5848 104.094 82.0823C103.812 82.3858 103.461 82.6161 103.071 82.7534C102.681 82.8906 102.263 82.9308 101.854 82.8704C99.5335 82.6082 97.209 82.3954 94.8815 82.2126C90.089 81.838 85.289 81.7841 80.4875 81.8635C78.4125 81.898 76.3374 82.0433 74.2623 82.1362C74.0858 82.1475 73.9085 82.14 73.7335 82.1137C73.6105 82.106 73.4943 82.0542 73.406 81.9679C73.3178 81.8816 73.2633 81.7664 73.2524 81.6433C73.23 81.3346 73.472 81.2252 73.72 81.1848C74.6164 81.0349 75.5023 80.9031 76.3957 80.7727C79.1056 80.3731 81.8246 80.058 84.5525 79.8272C86.8456 79.6324 89.1418 79.4526 91.4454 79.3957C93.6191 79.3418 95.7927 79.2563 97.9649 79.1859V79.3223Z" fill="#1276BB"/>
<path d="M105.521 76.3915C105.521 77.3774 104.508 78.2749 103.476 78.1326C100.667 77.7475 97.8529 77.4103 95.0308 77.1406C93.5085 76.9908 91.9803 76.9024 90.4535 76.8095C88.2962 76.6776 86.1345 76.6597 83.9773 76.7241C81.8858 76.781 79.7943 76.9204 77.7028 77.0417C77.3518 77.0627 77.0634 77.0193 77.0097 76.6357C76.9559 76.2521 77.2233 76.1233 77.5415 76.0738C79.1505 75.8281 80.7579 75.5748 82.3684 75.3441C84.6496 75.0189 86.9413 74.7852 89.2404 74.5949C90.3638 74.5005 91.4888 74.4226 92.6152 74.3881C94.4512 74.3327 96.2902 74.2488 98.1248 74.3057C99.9593 74.3627 101.8 74.3057 103.631 74.4675C104.661 74.55 105.514 75.4085 105.521 76.3915Z" fill="#8CBF45"/>
<path d="M98.7373 87.4255C97.1343 87.2756 95.5328 87.1048 93.9283 86.964C92.4045 86.8306 90.8792 86.7107 89.3539 86.6133C86.7291 86.4455 84.1013 86.4995 81.475 86.5219C80.9267 86.5219 80.3814 86.5819 79.8317 86.5999C79.4727 86.6243 79.1181 86.5095 78.8412 86.2792C78.6918 86.1548 78.523 86.023 78.5857 85.7967C78.6169 85.695 78.679 85.6056 78.7635 85.5411C78.8479 85.4766 78.9503 85.4403 79.0563 85.4371C79.9527 85.3068 80.8401 85.1644 81.7364 85.0536C86.0046 84.5217 90.2975 84.2126 94.5976 84.1275C96.7115 84.0871 98.8179 84.183 100.927 84.1725C101.18 84.1542 101.432 84.2169 101.647 84.3516C101.862 84.4863 102.028 84.6859 102.122 84.9217C102.354 85.4446 102.155 85.8597 101.798 86.2388C100.966 87.1258 99.9309 87.4689 98.7373 87.4255Z" fill="#1276BB"/>
<path d="M86.4677 67.0881C84.2761 67.0791 82.0845 67.0881 79.8944 67.2649C79.6345 67.2874 79.4044 67.2349 79.2729 66.9907C79.1236 66.715 79.3163 66.5412 79.4821 66.3584C79.7958 66.0152 80.2067 65.8849 80.6459 65.8264C83.6636 65.4324 86.6828 65.0593 89.72 64.8345C92.6958 64.6143 95.6732 64.5349 98.6551 64.5648C100.061 64.5783 101.268 65.0623 102.211 66.1411C102.554 66.5337 102.642 67.0281 102.438 67.4387C102.233 67.8493 101.771 68.065 101.256 68.0141C98.4684 67.7414 95.6852 67.4357 92.8901 67.2649C90.7493 67.127 88.61 67.0821 86.4677 67.0881Z" fill="#8CBF45"/>
<path d="M88.8072 92.3461C86.8039 92.3829 84.8124 92.0313 82.942 91.3107C82.5133 91.1519 82.2249 90.9152 82.3101 90.4252C82.3923 89.9592 82.7583 89.8423 83.1691 89.8004C86.886 89.4393 90.6073 89.1621 94.3436 89.0976C94.9412 89.0887 95.5388 89.0212 96.1289 89.0347C96.6383 89.0452 97.0252 89.3029 97.0745 89.6955C97.1388 90.145 96.8385 90.3563 96.4874 90.5346C94.4617 91.5625 91.6621 92.436 88.8072 92.3461Z" fill="#1276BB"/>
<path d="M88.4591 59.5003C91.7457 59.5003 94.2226 60.0847 96.5636 61.2324C96.7952 61.3463 97.0372 61.4512 97.1074 61.7419C97.2135 62.1764 96.9371 62.5375 96.4441 62.5285C95.122 62.5016 93.8013 62.4716 92.4822 62.3922C91.6919 62.3457 90.9031 62.3442 90.1143 62.3412C87.9033 62.3352 85.6933 62.3387 83.4843 62.3517C83.0825 62.3517 82.6806 62.4132 82.2787 62.4177C81.9052 62.4177 81.5542 62.3322 81.4481 61.9052C81.342 61.4782 81.6319 61.2549 81.974 61.0961C84.2462 60.0397 86.632 59.4958 88.4591 59.5003Z" fill="#8CBF45"/>
<path d="M36.5087 83.4042C36.5087 84.7514 36.1922 86.0831 35.5592 87.3993C34.9416 88.7155 34.0693 89.8305 32.9422 90.7441C31.7071 91.7352 30.2635 92.5094 28.6115 93.0669C26.975 93.6243 24.9988 93.9031 22.6829 93.9031C20.1972 93.9031 17.9585 93.6708 15.9669 93.2062C13.9907 92.7417 11.9759 92.0526 9.92244 91.139V85.3785H10.2467C11.9913 86.8341 14.0061 87.9568 16.2911 88.7465C18.5761 89.5363 20.7221 89.9311 22.7292 89.9311C25.57 89.9311 27.7778 89.3969 29.3526 88.3284C30.9428 87.2599 31.738 85.8353 31.738 84.0545C31.738 82.5215 31.3597 81.3911 30.6032 80.6633C29.8621 79.9355 28.7273 79.3703 27.1989 78.9677C26.0409 78.658 24.7826 78.4025 23.424 78.2011C22.0808 77.9998 20.6527 77.7443 19.1396 77.4346C16.0827 76.7843 13.8131 75.6771 12.331 74.1131C10.8642 72.5336 10.1309 70.4818 10.1309 67.9577C10.1309 65.062 11.3506 62.6928 13.79 60.8501C16.2293 58.9919 19.3249 58.0627 23.0766 58.0627C25.5005 58.0627 27.7238 58.295 29.7463 58.7596C31.7688 59.2241 33.5598 59.7971 35.1191 60.4784V65.9137H34.7949C33.4826 64.7988 31.7534 63.8774 29.6074 63.1496C27.4768 62.4063 25.2921 62.0347 23.0534 62.0347C20.5986 62.0347 18.6224 62.5457 17.1248 63.5677C15.6427 64.5897 14.9016 65.906 14.9016 67.5164C14.9016 68.9565 15.2721 70.0869 16.0132 70.9077C16.7543 71.7284 18.0589 72.3555 19.927 72.7891C20.9151 73.0059 22.3201 73.2691 24.1419 73.5788C25.9637 73.8885 27.5076 74.206 28.7736 74.5312C31.3365 75.2125 33.2664 76.2423 34.5633 77.6205C35.8602 78.9986 36.5087 80.9265 36.5087 83.4042Z" fill="#2254B5"/>
<path d="M70.5057 90.7673C69.6565 91.139 68.8846 91.4874 68.1898 91.8126C67.5105 92.1378 66.615 92.4784 65.5034 92.8346C64.5616 93.1288 63.5349 93.3766 62.4233 93.5779C61.3271 93.7947 60.1151 93.9031 58.7874 93.9031C56.2862 93.9031 54.0089 93.5546 51.9555 92.8578C49.9176 92.1455 48.1421 91.0383 46.629 89.5363C45.1469 88.0652 43.9889 86.1992 43.1552 83.9384C42.3215 81.6621 41.9046 79.0219 41.9046 76.0177C41.9046 73.1685 42.3061 70.6212 43.1089 68.3758C43.9117 66.1305 45.0697 64.2336 46.5827 62.6851C48.0494 61.183 49.8172 60.0371 51.8861 59.2474C53.9703 58.4576 56.2785 58.0627 58.8105 58.0627C60.6632 58.0627 62.5082 58.2873 64.3455 58.7364C66.1982 59.1854 68.2516 59.9752 70.5057 61.1056V66.5641H70.1583C68.2593 64.9691 66.3757 63.8077 64.5076 63.0799C62.6394 62.3521 60.6401 61.9882 58.5094 61.9882C56.7648 61.9882 55.19 62.2747 53.7851 62.8476C52.3955 63.4051 51.1527 64.28 50.0565 65.4724C48.9912 66.6338 48.1575 68.1049 47.5554 69.8856C46.9687 71.6509 46.6753 73.695 46.6753 76.0177C46.6753 78.4489 46.9996 80.5394 47.648 82.2892C48.3119 84.039 49.161 85.4637 50.1955 86.5631C51.2762 87.709 52.5345 88.5607 53.9703 89.1182C55.4216 89.6601 56.9501 89.9311 58.5558 89.9311C60.7636 89.9311 62.8324 89.5517 64.7623 88.793C66.6922 88.0342 68.4986 86.896 70.1814 85.3785H70.5057V90.7673Z" fill="#2254B5"/>
<path d="M138.87 93.2759H132.918L121.385 79.5251H114.924V93.2759H110.339V58.6899H119.996C122.08 58.6899 123.817 58.8293 125.207 59.108C126.596 59.3712 127.847 59.8513 128.958 60.5481C130.209 61.3378 131.182 62.3366 131.876 63.5445C132.587 64.7368 132.942 66.2544 132.942 68.0971C132.942 70.5902 132.316 72.6807 131.066 74.3686C129.815 76.041 128.094 77.303 125.901 78.1547L138.87 93.2759ZM128.148 68.4223C128.148 67.4312 127.97 66.5563 127.615 65.7976C127.275 65.0233 126.704 64.3729 125.901 63.8464C125.237 63.3974 124.45 63.0877 123.539 62.9173C122.628 62.7315 121.555 62.6386 120.32 62.6386H114.924V75.6926H119.556C121.007 75.6926 122.273 75.5687 123.354 75.3209C124.435 75.0577 125.353 74.5776 126.11 73.8808C126.805 73.2304 127.314 72.4871 127.638 71.6509C127.978 70.7993 128.148 69.723 128.148 68.4223Z" fill="#2254B5"/>
<path d="M166.035 93.2759H143.317V58.6899H166.035V62.778H147.902V72.2549H166.035V76.3429H147.902V89.1878H166.035V93.2759Z" fill="#2254B5"/>
<path d="M30.7085 134.602H26.123V104.801L16.5353 125.079H13.8026L4.28436 104.801V134.602H0V100.016H6.25286L15.4469 119.272L24.3398 100.016H30.7085V134.602Z" fill="#43B150"/>
<path d="M67.1603 134.602H62.2738L58.8926 124.963H43.9784L40.5972 134.602H35.9423L48.4944 100.016H54.6083L67.1603 134.602ZM57.48 121.014L51.4355 104.035L45.3679 121.014H57.48Z" fill="#43B150"/>
<path d="M97.2203 124.731C97.2203 126.078 96.9038 127.41 96.2708 128.726C95.6533 130.042 94.7809 131.157 93.6539 132.071C92.4188 133.062 90.9752 133.836 89.3232 134.393C87.6867 134.951 85.7104 135.23 83.3946 135.23C80.9089 135.23 78.6702 134.997 76.6785 134.533C74.7023 134.068 72.6875 133.379 70.6341 132.466V126.705H70.9583C72.703 128.161 74.7178 129.283 77.0028 130.073C79.2878 130.863 81.4338 131.258 83.4409 131.258C86.2817 131.258 88.4895 130.723 90.0643 129.655C91.6545 128.587 92.4496 127.162 92.4496 125.381C92.4496 123.848 92.0714 122.718 91.3149 121.99C90.5738 121.262 89.439 120.697 87.9105 120.294C86.7526 119.985 85.4943 119.729 84.1357 119.528C82.7924 119.326 81.3643 119.071 79.8513 118.761C76.7943 118.111 74.5248 117.004 73.0426 115.44C71.5759 113.86 70.8425 111.808 70.8425 109.284C70.8425 106.389 72.0622 104.019 74.5016 102.177C76.941 100.318 80.0366 99.3893 83.7883 99.3893C86.2122 99.3893 88.4355 99.6216 90.458 100.086C92.4805 100.551 94.2715 101.124 95.8308 101.805V107.24H95.5066C94.1943 106.125 92.4651 105.204 90.319 104.476C88.1884 103.733 86.0038 103.361 83.7651 103.361C81.3103 103.361 79.3341 103.872 77.8365 104.894C76.3543 105.916 75.6132 107.233 75.6132 108.843C75.6132 110.283 75.9838 111.414 76.7249 112.234C77.4659 113.055 78.7706 113.682 80.6387 114.116C81.6268 114.332 83.0318 114.596 84.8536 114.905C86.6754 115.215 88.2193 115.533 89.4853 115.858C92.0482 116.539 93.9781 117.569 95.275 118.947C96.5719 120.325 97.2203 122.253 97.2203 124.731Z" fill="#43B150"/>
<path d="M129.179 104.105H116.859V134.602H112.273V104.105H99.9531V100.016H129.179V104.105Z" fill="#43B150"/>
<path d="M156.53 134.602H133.811V100.016H156.53V104.105H138.397V113.581H156.53V117.67H138.397V130.514H156.53V134.602Z" fill="#43B150"/>
<path d="M192.356 134.602H186.405L174.872 120.852H168.41V134.602H163.825V100.016H173.482C175.566 100.016 177.303 100.156 178.693 100.435C180.082 100.698 181.333 101.178 182.444 101.875C183.695 102.664 184.668 103.663 185.362 104.871C186.073 106.063 186.428 107.581 186.428 109.424C186.428 111.917 185.802 114.007 184.552 115.695C183.301 117.368 181.58 118.63 179.387 119.481L192.356 134.602ZM181.634 109.749C181.634 108.758 181.456 107.883 181.101 107.124C180.762 106.35 180.19 105.7 179.387 105.173C178.724 104.724 177.936 104.414 177.025 104.244C176.114 104.058 175.041 103.965 173.806 103.965H168.41V117.019H173.042C174.493 117.019 175.759 116.895 176.84 116.647C177.921 116.384 178.839 115.904 179.596 115.207C180.291 114.557 180.8 113.814 181.124 112.978C181.464 112.126 181.634 111.05 181.634 109.749Z" fill="#43B150"/>
</svg>
