<svg width="18" height="17" viewBox="0 0 18 17" fill="none" xmlns="http://www.w3.org/2000/svg">
<path d="M9.97926 0.597589C9.7986 0.232396 9.41683 0 8.99755 0C8.57828 0 8.19991 0.232396 8.01584 0.597589L5.82403 4.98987L0.929098 5.6937C0.52005 5.75346 0.179178 6.03233 0.053055 6.41413C-0.0730679 6.79592 0.0291938 7.21755 0.322344 7.49975L3.87424 10.9226L3.03569 15.7598C2.96752 16.1582 3.13795 16.5632 3.47542 16.7989C3.81288 17.0346 4.25942 17.0645 4.62756 16.8753L9.00096 14.6011L13.3744 16.8753C13.7425 17.0645 14.189 17.0379 14.5265 16.7989C14.864 16.5599 15.0344 16.1582 14.9662 15.7598L14.1243 10.9226L17.6762 7.49975C17.9693 7.21755 18.075 6.79592 17.9455 6.41413C17.8159 6.03233 17.4785 5.75346 17.0694 5.6937L12.1711 4.98987L9.97926 0.597589Z" fill="white"/>
</svg>
