<svg width="14" height="14" viewBox="0 0 14 14" fill="none" xmlns="http://www.w3.org/2000/svg">
<path d="M13.6203 0.152253C13.8965 0.343659 14.0414 0.674519 13.9895 1.00538L12.2395 12.3804C12.1985 12.6456 12.0371 12.878 11.802 13.0093C11.5668 13.1405 11.2852 13.1569 11.0363 13.053L7.76603 11.694L5.89299 13.7202C5.64963 13.9855 5.26681 14.073 4.93049 13.9417C4.59416 13.8105 4.37541 13.4851 4.37541 13.1241V10.8382C4.37541 10.7288 4.41642 10.6249 4.49025 10.5456L9.07306 5.54444C9.23166 5.37218 9.22619 5.10694 9.06213 4.94288C8.89806 4.77882 8.63283 4.76788 8.46056 4.92374L2.89884 9.86475L0.484391 8.65616C0.194548 8.51124 0.00861 8.22139 0.00040687 7.89874C-0.00779625 7.57608 0.161735 7.2753 0.440641 7.11397L12.6906 0.113972C12.9832 -0.0528251 13.3442 -0.0364189 13.6203 0.152253Z" fill="white"/>
</svg>
