<svg width="76" height="76" viewBox="0 0 76 76" fill="none" xmlns="http://www.w3.org/2000/svg">
<mask id="path-1-inside-1_40_1836" fill="white">
<path d="M37.5402 0.0028116C44.7805 -0.0848093 51.8951 1.898 58.0465 5.7178C64.1978 9.5376 69.1297 15.0354 72.2616 21.5638C75.3935 28.0923 76.5949 35.3797 75.7245 42.568C74.8541 49.7563 71.948 56.5463 67.3485 62.1386C62.7489 67.7309 56.6474 71.8926 49.7621 74.1339C42.8769 76.3751 35.4946 76.6025 28.4845 74.7893C21.4744 72.9762 15.1282 69.1979 10.1931 63.8993C5.25807 58.6008 1.93957 52.0025 0.628335 44.8814L3.15098 44.4169C4.3737 51.0574 7.46819 57.2102 12.0701 62.1511C16.6721 67.092 22.5899 70.6152 29.1268 72.306C35.6638 73.9968 42.5477 73.7847 48.9682 71.6948C55.3886 69.6048 61.0783 65.724 65.3674 60.5092C69.6565 55.2944 72.3664 48.9627 73.1781 42.2596C73.9897 35.5565 72.8694 28.7611 69.9489 22.6733C67.0284 16.5855 62.4294 11.4589 56.6933 7.89689C50.9572 4.33493 44.3228 2.48597 37.5713 2.56767L37.5402 0.0028116Z"/>
</mask>
<path d="M37.5402 0.0028116C44.7805 -0.0848093 51.8951 1.898 58.0465 5.7178C64.1978 9.5376 69.1297 15.0354 72.2616 21.5638C75.3935 28.0923 76.5949 35.3797 75.7245 42.568C74.8541 49.7563 71.948 56.5463 67.3485 62.1386C62.7489 67.7309 56.6474 71.8926 49.7621 74.1339C42.8769 76.3751 35.4946 76.6025 28.4845 74.7893C21.4744 72.9762 15.1282 69.1979 10.1931 63.8993C5.25807 58.6008 1.93957 52.0025 0.628335 44.8814L3.15098 44.4169C4.3737 51.0574 7.46819 57.2102 12.0701 62.1511C16.6721 67.092 22.5899 70.6152 29.1268 72.306C35.6638 73.9968 42.5477 73.7847 48.9682 71.6948C55.3886 69.6048 61.0783 65.724 65.3674 60.5092C69.6565 55.2944 72.3664 48.9627 73.1781 42.2596C73.9897 35.5565 72.8694 28.7611 69.9489 22.6733C67.0284 16.5855 62.4294 11.4589 56.6933 7.89689C50.9572 4.33493 44.3228 2.48597 37.5713 2.56767L37.5402 0.0028116Z" stroke="#8DC046" stroke-width="4.72956" mask="url(#path-1-inside-1_40_1836)"/>
</svg>
