<svg width="17" height="18" viewBox="0 0 17 18" fill="none" xmlns="http://www.w3.org/2000/svg">
<path d="M4.722 0.267C4.862 0.25 5.017 0.25 5.197 0.25H11.803C11.983 0.25 12.138 0.25 12.278 0.267C12.775 0.328828 13.2371 0.554683 13.5912 0.908796C13.9453 1.26291 14.1712 1.72504 14.233 2.222L14.236 2.25H15.042C15.254 2.248 15.719 2.244 16.103 2.501C16.6 2.832 16.75 3.401 16.75 4C16.75 6.726 15.297 8.546 13.442 9.557C12.407 11.441 10.495 12.75 8.5 12.75C6.981 12.75 5.54 11.928 4.503 10.791C4.15843 10.4151 3.85597 10.0026 3.601 9.561C1.747 8.555 0.25 6.737 0.25 4C0.25 3.4 0.4 2.832 0.896 2.501C1.281 2.244 1.746 2.248 1.958 2.25H2.764L2.767 2.222C2.82883 1.72504 3.05468 1.26291 3.4088 0.908796C3.76291 0.554683 4.22504 0.328828 4.722 0.267ZM15.232 3.755C15.1548 3.75034 15.0774 3.74867 15 3.75H14.247L14.215 7.04C14.853 6.272 15.25 5.27 15.25 4C15.25 3.882 15.241 3.804 15.232 3.755ZM1.75 4C1.75 5.237 2.138 6.22 2.76 6.982C2.694 6.236 2.712 5.478 2.73 4.724C2.73933 4.39733 2.745 4.07267 2.747 3.75H2C1.891 3.75 1.822 3.75 1.769 3.755C1.75495 3.83588 1.74858 3.91792 1.75 4ZM8.73 3.555C8.71079 3.5099 8.67874 3.47145 8.63785 3.44442C8.59696 3.41739 8.54902 3.40298 8.5 3.40298C8.45098 3.40298 8.40304 3.41739 8.36215 3.44442C8.32126 3.47145 8.28921 3.5099 8.27 3.555L7.765 4.767C7.74738 4.8093 7.71847 4.84594 7.68144 4.87292C7.6444 4.89991 7.60066 4.91619 7.555 4.92L6.246 5.025C6.19676 5.0289 6.14978 5.0473 6.11099 5.07787C6.0722 5.10845 6.04333 5.14982 6.02803 5.19679C6.01273 5.24375 6.01169 5.2942 6.02503 5.34175C6.03837 5.38931 6.0655 5.43185 6.103 5.464L7.1 6.318C7.13485 6.34799 7.16075 6.387 7.17487 6.43075C7.18898 6.47451 7.19076 6.5213 7.18 6.566L6.876 7.842C6.86428 7.89015 6.86713 7.9407 6.8842 7.98723C6.90127 8.03376 6.93178 8.07416 6.97186 8.10331C7.01195 8.13246 7.05978 8.14904 7.10931 8.15094C7.15883 8.15285 7.2078 8.13999 7.25 8.114L8.37 7.43C8.40917 7.40615 8.45414 7.39354 8.5 7.39354C8.54586 7.39354 8.59083 7.40615 8.63 7.43L9.75 8.114C9.7922 8.13999 9.84117 8.15285 9.89069 8.15094C9.94022 8.14904 9.98806 8.13246 10.0281 8.10331C10.0682 8.07416 10.0987 8.03376 10.1158 7.98723C10.1329 7.9407 10.1357 7.89015 10.124 7.842L9.819 6.566C9.80824 6.5213 9.81002 6.47451 9.82413 6.43075C9.83825 6.387 9.86415 6.34799 9.899 6.318L10.897 5.464C10.9348 5.43192 10.9623 5.38932 10.9758 5.3416C10.9894 5.29388 10.9884 5.24321 10.9731 5.19603C10.9578 5.14885 10.9287 5.10731 10.8897 5.07667C10.8507 5.04604 10.8035 5.0277 10.754 5.024L9.446 4.92C9.40016 4.91637 9.35621 4.90017 9.31898 4.87317C9.28176 4.84618 9.2527 4.80944 9.235 4.767L8.73 3.555ZM8.5 13.25C8.69891 13.25 8.88968 13.329 9.03033 13.4697C9.17098 13.6103 9.25 13.8011 9.25 14V16.25H12.5C12.6989 16.25 12.8897 16.329 13.0303 16.4697C13.171 16.6103 13.25 16.8011 13.25 17C13.25 17.1989 13.171 17.3897 13.0303 17.5303C12.8897 17.671 12.6989 17.75 12.5 17.75H4.5C4.30109 17.75 4.11032 17.671 3.96967 17.5303C3.82902 17.3897 3.75 17.1989 3.75 17C3.75 16.8011 3.82902 16.6103 3.96967 16.4697C4.11032 16.329 4.30109 16.25 4.5 16.25H7.75V14C7.75 13.8011 7.82902 13.6103 7.96967 13.4697C8.11032 13.329 8.30109 13.25 8.5 13.25Z" fill="white"/>
</svg>
