<svg width="41" height="40" viewBox="0 0 41 40" fill="none" xmlns="http://www.w3.org/2000/svg">
<rect x="0.5" width="40" height="40" rx="20" fill="#8DC046"/>
<rect x="0.5" width="40" height="40" rx="20" stroke="#E5E7EB"/>
<path d="M29.5 30H11.5V10H29.5V30Z" stroke="#E5E7EB"/>
<path d="M24 11.9999H17C16.1719 11.9999 15.4969 12.6812 15.5281 13.5062C15.5344 13.6718 15.5406 13.8374 15.55 13.9999H12.25C11.8344 13.9999 11.5 14.3343 11.5 14.7499C11.5 17.6437 12.5469 19.6562 13.9531 21.0218C15.3375 22.3687 17.025 23.0468 18.2688 23.3906C19 23.5937 19.5 24.2031 19.5 24.8156C19.5 25.4687 18.9688 25.9999 18.3156 25.9999H17.5C16.9469 25.9999 16.5 26.4468 16.5 26.9999C16.5 27.5531 16.9469 27.9999 17.5 27.9999H23.5C24.0531 27.9999 24.5 27.5531 24.5 26.9999C24.5 26.4468 24.0531 25.9999 23.5 25.9999H22.6844C22.0312 25.9999 21.5 25.4687 21.5 24.8156C21.5 24.2031 21.9969 23.5906 22.7312 23.3906C23.9781 23.0468 25.6656 22.3687 27.05 21.0218C28.4531 19.6562 29.5 17.6437 29.5 14.7499C29.5 14.3343 29.1656 13.9999 28.75 13.9999H25.45C25.4594 13.8374 25.4656 13.6749 25.4719 13.5062C25.5031 12.6812 24.8281 11.9999 24 11.9999ZM13.0281 15.4999H15.6656C15.95 18.3156 16.5781 20.1968 17.2875 21.4562C16.5094 21.1124 15.7 20.6281 15 19.9468C14 18.9749 13.1875 17.5718 13.0312 15.4999H13.0281ZM26.0031 19.9468C25.3031 20.6281 24.4937 21.1124 23.7156 21.4562C24.425 20.1968 25.0531 18.3156 25.3375 15.4999H27.975C27.8156 17.5718 27.0031 18.9749 26.0063 19.9468H26.0031Z" fill="white"/>
</svg>
